<?xml version="1.0" encoding="utf-8"?>
<!-- Generator: Adobe Illustrator 21.0.0, SVG Export Plug-In . SVG Version: 6.00 Build 0)  -->
<!DOCTYPE svg PUBLIC "-//W3C//DTD SVG 1.1//EN" "http://www.w3.org/Graphics/SVG/1.1/DTD/svg11.dtd">
<svg version="1.1" id="Layer_1" xmlns="http://www.w3.org/2000/svg" xmlns:xlink="http://www.w3.org/1999/xlink" x="0px" y="0px"
	 viewBox="0 0 827 288" style="enable-background:new 0 0 827 288;" xml:space="preserve">
<style type="text/css">
	.st0{fill:#FFFFFF;}
	.st1{fill:#DC7676;}
	.st2{fill:#F8E2D2;}
	.st3{fill:none;stroke:#FBAE24;stroke-width:6;stroke-miterlimit:10;}
	.st4{fill:#FBAE24;}
</style>
<path class="st0" d="M861,328H-18c-6.6,0-12-5.4-12-12V-35c0-6.6,5.4-12,12-12h879c6.6,0,12,5.4,12,12v351
	C873,322.6,867.6,328,861,328z"/>
<path class="st1" d="M272.7,256H137.3c-6.6,0-12-5.4-12-12V32.7c0-6.6,5.4-12,12-12h135.3c6.6,0,12,5.4,12,12V244
	C284.7,250.6,279.3,256,272.7,256z"/>
<g>
	<path class="st0" d="M139.5,44.7c1,1.1,2.7,2,4.7,2c1.7,0,2.6-0.8,2.6-1.7c0-1.1-1.3-1.5-3-1.9c-2.4-0.6-5.5-1.2-5.5-4.5
		c0-2.5,2.1-4.5,5.6-4.5c2.4,0,4.3,0.7,5.8,2.1l-1.8,2.3c-1.2-1.1-2.8-1.6-4.2-1.6c-1.4,0-2.2,0.6-2.2,1.5c0,1,1.2,1.3,3,1.7
		c2.4,0.6,5.6,1.3,5.6,4.6c0,2.7-1.9,4.8-5.9,4.8c-2.8,0-4.9-1-6.3-2.4L139.5,44.7z"/>
	<path class="st0" d="M159.3,47.8c-0.7,0.8-2,1.6-3.8,1.6c-2.4,0-3.5-1.3-3.5-3.4v-7.6h2.8V45c0,1.5,0.8,2,2,2c1.1,0,2-0.6,2.4-1.2
		v-7.3h2.8v10.7h-2.8V47.8z"/>
	<path class="st0" d="M165.6,40.9h-1.8v-2.5h1.8v-0.6c0-2.3,1.5-3.7,3.6-3.7c0.8,0,1.5,0.2,2,0.4l-0.6,2c-0.2-0.2-0.6-0.2-0.9-0.2
		c-0.8,0-1.3,0.5-1.3,1.6v0.5h2.2v2.5h-2.2v8.3h-2.8V40.9z M172.8,40.9h-1.8v-2.5h1.8v-0.6c0-2.3,1.5-3.7,3.6-3.7
		c0.8,0,1.5,0.2,2,0.4l-0.6,2c-0.2-0.2-0.5-0.3-0.9-0.3c-0.8,0-1.3,0.5-1.3,1.5v0.6h2.2v2.5h-2.2v8.3h-2.8V40.9z M179.2,35.4
		c0-0.9,0.8-1.7,1.7-1.7c0.9,0,1.7,0.8,1.7,1.7s-0.8,1.7-1.7,1.7C180,37.1,179.2,36.3,179.2,35.4z M179.5,38.4h2.8v10.7h-2.8V38.4z"
		/>
	<path class="st0" d="M189.3,45.6l-2.5,3.6h-3.1l3.8-5.5l-3.6-5.2h3.2l2.2,3.3l2.2-3.3h3.2l-3.6,5.2l3.8,5.5h-3.2L189.3,45.6z"/>
	<path class="st0" d="M200.6,38.2c3.2,0,5.4,2.4,5.4,5.9v0.6h-8c0.2,1.4,1.3,2.5,3.1,2.5c1,0,2.2-0.4,2.9-1.1l1.2,1.8
		c-1.1,1-2.8,1.5-4.4,1.5c-3.3,0-5.7-2.2-5.7-5.6C195.1,40.7,197.4,38.2,200.6,38.2z M198,42.8h5.3c-0.1-1-0.8-2.4-2.6-2.4
		C198.9,40.4,198.1,41.7,198,42.8z"/>
	<path class="st0" d="M208.1,38.4h2.8v1.5c0.8-1,2.1-1.7,3.4-1.7V41c-0.2,0-0.5-0.1-0.8-0.1c-0.9,0-2.2,0.5-2.6,1.2v7.1h-2.8V38.4z"
		/>
	<path class="st0" d="M215.6,43.8c0-3.6,1.4-7.4,3.5-9.8l1.8,1.3c-1.5,2.7-2.2,5.2-2.2,8.5s0.7,5.8,2.2,8.4l-1.8,1.4
		C216.9,51.2,215.6,47.4,215.6,43.8z"/>
	<path class="st0" d="M222.5,39.5c0.7-0.4,1.5-1.3,1.7-2.1c-0.1,0-0.3,0.1-0.4,0.1c-0.8,0-1.5-0.7-1.5-1.6c0-1,0.8-1.8,1.7-1.8
		c1,0,2,0.8,2,2.3c0,1.7-0.9,3.2-2.3,4.1L222.5,39.5z M227,39.5c0.7-0.4,1.5-1.3,1.7-2.1c-0.1,0-0.3,0.1-0.4,0.1
		c-0.8,0-1.5-0.7-1.5-1.6c0-1,0.8-1.8,1.8-1.8c1,0,2,0.8,2,2.3c0,1.7-0.9,3.2-2.3,4.1L227,39.5z"/>
	<path class="st0" d="M232.5,45.8c0.8,0.7,2.4,1.5,3.7,1.5c1.2,0,1.8-0.4,1.8-1.1c0-0.8-0.9-1-2.2-1.3c-1.8-0.4-4.2-0.8-4.2-3.4
		c0-1.8,1.6-3.4,4.4-3.4c1.8,0,3.3,0.6,4.3,1.5l-1.1,1.9c-0.6-0.7-1.9-1.2-3.2-1.2c-1,0-1.7,0.4-1.7,1c0,0.7,0.8,0.9,2,1.2
		c1.8,0.4,4.3,0.8,4.3,3.5c0,2-1.7,3.4-4.6,3.4c-1.9,0-3.7-0.6-4.8-1.7L232.5,45.8z"/>
	<path class="st0" d="M245.9,38.4l-2.4,2.5l-1.8-1.9l4.7-4.7h2.8v14.8h-3.2V38.4z"/>
	<path class="st0" d="M251.8,39.5c0.7-0.4,1.5-1.3,1.7-2.1c-0.1,0-0.3,0.1-0.4,0.1c-0.8,0-1.5-0.7-1.5-1.6c0-1,0.8-1.8,1.7-1.8
		c1,0,2,0.8,2,2.3c0,1.7-0.9,3.2-2.3,4.1L251.8,39.5z M256.3,39.5c0.7-0.4,1.5-1.3,1.7-2.1c-0.1,0-0.3,0.1-0.4,0.1
		c-0.8,0-1.5-0.7-1.5-1.6c0-1,0.8-1.8,1.8-1.8c1,0,2,0.8,2,2.3c0,1.7-0.9,3.2-2.3,4.1L256.3,39.5z"/>
	<path class="st0" d="M261.1,35.3l1.8-1.3c2.2,2.4,3.6,6.2,3.6,9.8c0,3.6-1.4,7.4-3.6,9.8l-1.8-1.4c1.5-2.7,2.3-5.1,2.3-8.4
		S262.6,38,261.1,35.3z"/>
</g>
<path class="st1" d="M786,256h-84c-6.6,0-12-5.4-12-12V32.7c0-6.6,5.4-12,12-12h84c6.6,0,12,5.4,12,12V244
	C798,250.6,792.6,256,786,256z"/>
<g>
	<path class="st0" d="M708.9,43.9h-2.3v5.3h-3.2V34.4h6.9c3.1,0,5,2,5,4.8c0,2.6-1.6,4-3.2,4.4l3.3,5.6h-3.6L708.9,43.9z
		 M709.9,37.1h-3.3v4.1h3.3c1.3,0,2.2-0.8,2.2-2C712.2,37.9,711.2,37.1,709.9,37.1z"/>
	<path class="st0" d="M721.9,38.2c3.2,0,5.4,2.4,5.4,5.9v0.6h-8c0.2,1.4,1.3,2.5,3.1,2.5c1,0,2.2-0.4,2.9-1.1l1.2,1.8
		c-1.1,1-2.8,1.5-4.4,1.5c-3.3,0-5.7-2.2-5.7-5.6C716.3,40.7,718.6,38.2,721.9,38.2z M719.2,42.8h5.3c-0.1-1-0.8-2.4-2.6-2.4
		C720.1,40.4,719.4,41.7,719.2,42.8z"/>
	<path class="st0" d="M729.6,45.8c0.8,0.7,2.4,1.5,3.7,1.5c1.2,0,1.8-0.4,1.8-1.1c0-0.8-0.9-1-2.2-1.3c-1.8-0.4-4.2-0.8-4.2-3.4
		c0-1.8,1.6-3.4,4.4-3.4c1.8,0,3.3,0.6,4.3,1.5l-1.1,1.9c-0.6-0.7-1.9-1.2-3.2-1.2c-1,0-1.7,0.4-1.7,1c0,0.7,0.8,0.9,2,1.2
		c1.8,0.4,4.3,0.8,4.3,3.5c0,2-1.7,3.4-4.6,3.4c-1.9,0-3.7-0.6-4.8-1.7L729.6,45.8z"/>
	<path class="st0" d="M739.2,43.8c0-3,2.1-5.6,5.7-5.6c3.6,0,5.7,2.6,5.7,5.6c0,3.1-2.1,5.6-5.7,5.6
		C741.4,49.5,739.2,46.9,739.2,43.8z M747.7,43.8c0-1.7-1-3.1-2.8-3.1c-1.8,0-2.7,1.4-2.7,3.1c0,1.7,1,3.1,2.7,3.1
		C746.7,46.9,747.7,45.5,747.7,43.8z"/>
	<path class="st0" d="M752.7,34.4h2.8v14.8h-2.8V34.4z"/>
	<path class="st0" d="M756.8,38.4h3l2.8,7.5l2.8-7.5h3l-4.3,10.7h-3L756.8,38.4z"/>
	<path class="st0" d="M774.6,38.2c3.2,0,5.4,2.4,5.4,5.9v0.6h-8c0.2,1.4,1.3,2.5,3.1,2.5c1,0,2.2-0.4,2.9-1.1l1.2,1.8
		c-1.1,1-2.8,1.5-4.4,1.5c-3.3,0-5.7-2.2-5.7-5.6C769,40.7,771.3,38.2,774.6,38.2z M771.9,42.8h5.3c-0.1-1-0.8-2.4-2.6-2.4
		C772.8,40.4,772.1,41.7,771.9,42.8z"/>
</g>
<g>
	<path class="st2" d="M150.9,97h2v5.6c0.8-1.2,2.1-1.8,3.5-1.8c2.8,0,4.8,2.2,4.8,5.6c0,3.5-2,5.6-4.8,5.6c-1.4,0-2.7-0.7-3.5-1.8
		v1.5h-2V97z M155.9,110.3c2,0,3.2-1.6,3.2-3.8s-1.2-3.9-3.2-3.9c-1.2,0-2.4,0.7-3,1.6v4.6C153.4,109.7,154.7,110.3,155.9,110.3z"/>
	<path class="st2" d="M168.5,100.8c3.2,0,5.2,2.5,5.2,5.8v0.5h-8.5c0.2,1.8,1.5,3.3,3.6,3.3c1.1,0,2.4-0.4,3.2-1.3l0.9,1.3
		c-1.1,1-2.6,1.6-4.3,1.6c-3.2,0-5.6-2.3-5.6-5.6C163.1,103.4,165.3,100.8,168.5,100.8z M165.2,105.7h6.6c0-1.4-1-3.2-3.3-3.2
		C166.3,102.5,165.3,104.2,165.2,105.7z"/>
	<path class="st2" d="M176.7,102.9h-1.8v-1.8h1.8v-0.7c0-2.3,1.4-3.6,3.3-3.6c0.7,0,1.3,0.1,1.8,0.4l-0.5,1.5
		c-0.3-0.2-0.6-0.2-1-0.2c-1,0-1.6,0.7-1.6,2v0.7h2.2v1.8h-2.2v9h-2V102.9z"/>
	<path class="st2" d="M182.1,106.5c0-3.1,2.1-5.6,5.4-5.6c3.4,0,5.4,2.5,5.4,5.6c0,3.1-2.1,5.6-5.4,5.6
		C184.2,112.1,182.1,109.6,182.1,106.5z M190.9,106.5c0-2-1.2-3.8-3.3-3.8c-2.1,0-3.3,1.8-3.3,3.8c0,2,1.2,3.9,3.3,3.9
		C189.7,110.3,190.9,108.5,190.9,106.5z"/>
	<path class="st2" d="M195.5,101.1h2v1.6c0.8-1.1,2.1-1.9,3.5-1.9v2c-0.2,0-0.4-0.1-0.7-0.1c-1,0-2.4,0.8-2.8,1.6v7.5h-2V101.1z"/>
	<path class="st2" d="M207.7,100.8c3.2,0,5.2,2.5,5.2,5.8v0.5h-8.5c0.2,1.8,1.5,3.3,3.6,3.3c1.1,0,2.4-0.4,3.2-1.3l0.9,1.3
		c-1.1,1-2.6,1.6-4.3,1.6c-3.2,0-5.6-2.3-5.6-5.6C202.3,103.4,204.6,100.8,207.7,100.8z M204.4,105.7h6.6c0-1.4-1-3.2-3.3-3.2
		C205.6,102.5,204.5,104.2,204.4,105.7z"/>
	<path class="st2" d="M215.5,97h10v2h-7.7v4.3h7.6v2h-7.6v6.6h-2.2V97z"/>
	<path class="st2" d="M227.5,98.1c0-0.7,0.6-1.3,1.3-1.3c0.7,0,1.3,0.6,1.3,1.3s-0.6,1.3-1.3,1.3C228.1,99.4,227.5,98.8,227.5,98.1z
		 M227.8,101.1h2v10.7h-2V101.1z"/>
	<path class="st2" d="M237.7,100.8c3.2,0,5.2,2.5,5.2,5.8v0.5h-8.5c0.2,1.8,1.5,3.3,3.6,3.3c1.1,0,2.4-0.4,3.2-1.3l0.9,1.3
		c-1.1,1-2.6,1.6-4.3,1.6c-3.2,0-5.6-2.3-5.6-5.6C232.3,103.4,234.6,100.8,237.7,100.8z M234.4,105.7h6.6c0-1.4-1-3.2-3.3-3.2
		C235.5,102.5,234.5,104.2,234.4,105.7z"/>
	<path class="st2" d="M245.4,97h2v14.8h-2V97z"/>
	<path class="st2" d="M258.3,110.3c-0.8,1.1-2.1,1.8-3.5,1.8c-2.8,0-4.8-2.1-4.8-5.6c0-3.4,2-5.6,4.8-5.6c1.4,0,2.6,0.7,3.5,1.8V97
		h2v14.8h-2V110.3z M258.3,104.2c-0.6-0.9-1.8-1.6-3-1.6c-2,0-3.2,1.6-3.2,3.9c0,2.2,1.2,3.8,3.2,3.8c1.2,0,2.4-0.7,3-1.6V104.2z"/>
</g>
<g>
	<path class="st2" d="M167.2,191.3c-0.8,0.9-2.1,1.4-3.5,1.4c-1.8,0-3.7-1.2-3.7-3.6c0-2.4,1.9-3.5,3.7-3.5c1.4,0,2.7,0.5,3.5,1.4
		v-1.8c0-1.3-1.1-2.1-2.6-2.1c-1.2,0-2.3,0.5-3.2,1.4l-0.9-1.4c1.2-1.2,2.7-1.8,4.4-1.8c2.3,0,4.3,1,4.3,3.8v7.2h-2V191.3z
		 M167.2,188.3c-0.6-0.8-1.6-1.2-2.8-1.2c-1.4,0-2.5,0.9-2.5,2.1s1,2.1,2.5,2.1c1.1,0,2.2-0.4,2.8-1.2V188.3z"/>
	<path class="st2" d="M172.9,183.5h-1.8v-1.8h1.8v-0.7c0-2.3,1.4-3.6,3.3-3.6c0.7,0,1.3,0.1,1.8,0.4l-0.5,1.5
		c-0.3-0.2-0.6-0.2-1-0.2c-1,0-1.6,0.7-1.6,2v0.7h2.2v1.8h-2.2v9h-2V183.5z"/>
	<path class="st2" d="M179.4,190.1v-6.6h-1.8v-1.8h1.8v-2.9h2v2.9h2.2v1.8h-2.2v6.2c0,0.8,0.4,1.3,1,1.3c0.5,0,0.9-0.2,1.1-0.4
		l0.5,1.5c-0.4,0.4-1,0.7-2.1,0.7C180.3,192.8,179.4,191.8,179.4,190.1z"/>
	<path class="st2" d="M190.5,181.5c3.2,0,5.2,2.5,5.2,5.8v0.5h-8.5c0.2,1.8,1.5,3.3,3.6,3.3c1.1,0,2.4-0.4,3.2-1.3l0.9,1.3
		c-1.1,1-2.6,1.6-4.3,1.6c-3.2,0-5.6-2.3-5.6-5.6C185.1,184,187.4,181.5,190.5,181.5z M187.2,186.4h6.6c0-1.4-1-3.2-3.3-3.2
		C188.4,183.2,187.3,184.9,187.2,186.4z"/>
	<path class="st2" d="M198.3,181.8h2v1.6c0.8-1.1,2.1-1.9,3.5-1.9v2c-0.2,0-0.4-0.1-0.7-0.1c-1,0-2.4,0.8-2.8,1.6v7.5h-2V181.8z"/>
	<path class="st2" d="M205.8,177.7h10v2H208v4.3h7.6v2H208v6.6h-2.2V177.7z"/>
	<path class="st2" d="M217.8,178.8c0-0.7,0.6-1.3,1.3-1.3c0.7,0,1.3,0.6,1.3,1.3s-0.6,1.3-1.3,1.3
		C218.4,180.1,217.8,179.5,217.8,178.8z M218.1,181.8h2v10.7h-2V181.8z"/>
	<path class="st2" d="M228,181.5c3.2,0,5.2,2.5,5.2,5.8v0.5h-8.5c0.2,1.8,1.5,3.3,3.6,3.3c1.1,0,2.4-0.4,3.2-1.3l0.9,1.3
		c-1.1,1-2.6,1.6-4.3,1.6c-3.2,0-5.6-2.3-5.6-5.6C222.6,184,224.9,181.5,228,181.5z M224.7,186.4h6.6c0-1.4-1-3.2-3.3-3.2
		C225.9,183.2,224.8,184.9,224.7,186.4z"/>
	<path class="st2" d="M235.7,177.7h2v14.8h-2V177.7z"/>
	<path class="st2" d="M248.6,191c-0.8,1.1-2.1,1.8-3.5,1.8c-2.8,0-4.8-2.1-4.8-5.6c0-3.4,2-5.6,4.8-5.6c1.4,0,2.6,0.7,3.5,1.8v-5.6
		h2v14.8h-2V191z M248.6,184.9c-0.6-0.9-1.8-1.6-3-1.6c-2,0-3.2,1.6-3.2,3.9c0,2.2,1.2,3.8,3.2,3.8c1.2,0,2.4-0.7,3-1.6V184.9z"/>
</g>
<path class="st1" d="M540.7,256H405.3c-6.6,0-12-5.4-12-12V32.7c0-6.6,5.4-12,12-12h135.3c6.6,0,12,5.4,12,12V244
	C552.7,250.6,547.3,256,540.7,256z"/>
<g>
	<path class="st0" d="M407.5,44.7c1,1.1,2.7,2,4.7,2c1.7,0,2.6-0.8,2.6-1.7c0-1.1-1.3-1.5-3-1.9c-2.4-0.6-5.5-1.2-5.5-4.5
		c0-2.5,2.1-4.5,5.6-4.5c2.4,0,4.3,0.7,5.8,2.1l-1.8,2.3c-1.2-1.1-2.8-1.6-4.2-1.6c-1.4,0-2.2,0.6-2.2,1.5c0,1,1.2,1.3,3,1.7
		c2.4,0.6,5.6,1.3,5.6,4.6c0,2.7-1.9,4.8-5.9,4.8c-2.8,0-4.9-1-6.3-2.4L407.5,44.7z"/>
	<path class="st0" d="M427.3,47.8c-0.7,0.8-2,1.6-3.8,1.6c-2.4,0-3.5-1.3-3.5-3.4v-7.6h2.8V45c0,1.5,0.8,2,2,2c1.1,0,2-0.6,2.4-1.2
		v-7.3h2.8v10.7h-2.8V47.8z"/>
	<path class="st0" d="M433.6,40.9h-1.8v-2.5h1.8v-0.6c0-2.3,1.5-3.7,3.6-3.7c0.8,0,1.5,0.2,2,0.4l-0.6,2c-0.2-0.2-0.6-0.2-0.9-0.2
		c-0.8,0-1.3,0.5-1.3,1.6v0.5h2.2v2.5h-2.2v8.3h-2.8V40.9z M440.8,40.9h-1.8v-2.5h1.8v-0.6c0-2.3,1.5-3.7,3.6-3.7
		c0.8,0,1.5,0.2,2,0.4l-0.6,2c-0.2-0.2-0.5-0.3-0.9-0.3c-0.8,0-1.3,0.5-1.3,1.5v0.6h2.2v2.5h-2.2v8.3h-2.8V40.9z M447.2,35.4
		c0-0.9,0.8-1.7,1.7-1.7c0.9,0,1.7,0.8,1.7,1.7s-0.8,1.7-1.7,1.7C448,37.1,447.2,36.3,447.2,35.4z M447.5,38.4h2.8v10.7h-2.8V38.4z"
		/>
	<path class="st0" d="M457.3,45.6l-2.5,3.6h-3.1l3.8-5.5l-3.6-5.2h3.2l2.2,3.3l2.2-3.3h3.2l-3.6,5.2l3.8,5.5h-3.2L457.3,45.6z"/>
	<path class="st0" d="M468.6,38.2c3.2,0,5.4,2.4,5.4,5.9v0.6h-8c0.2,1.4,1.3,2.5,3.1,2.5c1,0,2.2-0.4,2.9-1.1l1.2,1.8
		c-1.1,1-2.8,1.5-4.4,1.5c-3.3,0-5.7-2.2-5.7-5.6C463.1,40.7,465.4,38.2,468.6,38.2z M466,42.8h5.3c-0.1-1-0.8-2.4-2.6-2.4
		C466.9,40.4,466.1,41.7,466,42.8z"/>
	<path class="st0" d="M476.1,38.4h2.8v1.5c0.8-1,2.1-1.7,3.4-1.7V41c-0.2,0-0.5-0.1-0.8-0.1c-0.9,0-2.2,0.5-2.6,1.2v7.1h-2.8V38.4z"
		/>
	<path class="st0" d="M483.6,43.8c0-3.6,1.4-7.4,3.5-9.8l1.8,1.3c-1.5,2.7-2.2,5.2-2.2,8.5s0.7,5.8,2.2,8.4l-1.8,1.4
		C484.9,51.2,483.6,47.4,483.6,43.8z"/>
	<path class="st0" d="M490.5,39.5c0.7-0.4,1.5-1.3,1.7-2.1c-0.1,0-0.3,0.1-0.4,0.1c-0.8,0-1.5-0.7-1.5-1.6c0-1,0.8-1.8,1.7-1.8
		c1,0,2,0.8,2,2.3c0,1.7-0.9,3.2-2.3,4.1L490.5,39.5z M495,39.5c0.7-0.4,1.5-1.3,1.7-2.1c-0.1,0-0.3,0.1-0.4,0.1
		c-0.8,0-1.5-0.7-1.5-1.6c0-1,0.8-1.8,1.8-1.8c1,0,2,0.8,2,2.3c0,1.7-0.9,3.2-2.3,4.1L495,39.5z"/>
	<path class="st0" d="M500.5,45.8c0.8,0.7,2.4,1.5,3.7,1.5c1.2,0,1.8-0.4,1.8-1.1c0-0.8-0.9-1-2.2-1.3c-1.8-0.4-4.2-0.8-4.2-3.4
		c0-1.8,1.6-3.4,4.4-3.4c1.8,0,3.3,0.6,4.3,1.5l-1.1,1.9c-0.6-0.7-1.9-1.2-3.2-1.2c-1,0-1.7,0.4-1.7,1c0,0.7,0.8,0.9,2,1.2
		c1.8,0.4,4.3,0.8,4.3,3.5c0,2-1.7,3.4-4.6,3.4c-1.9,0-3.7-0.6-4.8-1.7L500.5,45.8z"/>
	<path class="st0" d="M510.4,46.7c6.1-4.5,7.8-6,7.8-7.8c0-1.3-1.2-1.9-2.4-1.9c-1.7,0-3,0.7-4,1.7l-1.8-2.1
		c1.4-1.7,3.6-2.4,5.7-2.4c3.2,0,5.7,1.8,5.7,4.7c0,2.5-2.1,4.7-6.1,7.5h6.2v2.8h-11.2V46.7z"/>
	<path class="st0" d="M524,39.5c0.7-0.4,1.5-1.3,1.7-2.1c-0.1,0-0.3,0.1-0.4,0.1c-0.8,0-1.5-0.7-1.5-1.6c0-1,0.8-1.8,1.7-1.8
		c1,0,2,0.8,2,2.3c0,1.7-0.9,3.2-2.3,4.1L524,39.5z M528.5,39.5c0.7-0.4,1.5-1.3,1.7-2.1c-0.1,0-0.3,0.1-0.4,0.1
		c-0.8,0-1.5-0.7-1.5-1.6c0-1,0.8-1.8,1.8-1.8c1,0,2,0.8,2,2.3c0,1.7-0.9,3.2-2.3,4.1L528.5,39.5z"/>
	<path class="st0" d="M533.3,35.3l1.8-1.3c2.2,2.4,3.6,6.2,3.6,9.8c0,3.6-1.4,7.4-3.6,9.8l-1.8-1.4c1.5-2.7,2.3-5.1,2.3-8.4
		S534.8,38,533.3,35.3z"/>
</g>
<g>
	<path class="st2" d="M418.9,97h2v5.6c0.8-1.2,2.1-1.8,3.5-1.8c2.8,0,4.8,2.2,4.8,5.6c0,3.5-2,5.6-4.8,5.6c-1.4,0-2.7-0.7-3.5-1.8
		v1.5h-2V97z M423.9,110.3c2,0,3.2-1.6,3.2-3.8s-1.2-3.9-3.2-3.9c-1.2,0-2.4,0.7-3,1.6v4.6C421.4,109.7,422.7,110.3,423.9,110.3z"/>
	<path class="st2" d="M436.5,100.8c3.2,0,5.2,2.5,5.2,5.8v0.5h-8.5c0.2,1.8,1.5,3.3,3.6,3.3c1.1,0,2.4-0.4,3.2-1.3l0.9,1.3
		c-1.1,1-2.6,1.6-4.3,1.6c-3.2,0-5.6-2.3-5.6-5.6C431.1,103.4,433.3,100.8,436.5,100.8z M433.2,105.7h6.6c0-1.4-1-3.2-3.3-3.2
		C434.3,102.5,433.3,104.2,433.2,105.7z"/>
	<path class="st2" d="M444.7,102.9h-1.8v-1.8h1.8v-0.7c0-2.3,1.4-3.6,3.3-3.6c0.7,0,1.3,0.1,1.8,0.4l-0.5,1.5
		c-0.3-0.2-0.6-0.2-1-0.2c-1,0-1.6,0.7-1.6,2v0.7h2.2v1.8h-2.2v9h-2V102.9z"/>
	<path class="st2" d="M450.1,106.5c0-3.1,2.1-5.6,5.4-5.6c3.4,0,5.4,2.5,5.4,5.6c0,3.1-2.1,5.6-5.4,5.6
		C452.2,112.1,450.1,109.6,450.1,106.5z M458.9,106.5c0-2-1.2-3.8-3.3-3.8c-2.1,0-3.3,1.8-3.3,3.8c0,2,1.2,3.9,3.3,3.9
		C457.7,110.3,458.9,108.5,458.9,106.5z"/>
	<path class="st2" d="M463.5,101.1h2v1.6c0.8-1.1,2.1-1.9,3.5-1.9v2c-0.2,0-0.4-0.1-0.7-0.1c-1,0-2.4,0.8-2.8,1.6v7.5h-2V101.1z"/>
	<path class="st2" d="M475.7,100.8c3.2,0,5.2,2.5,5.2,5.8v0.5h-8.5c0.2,1.8,1.5,3.3,3.6,3.3c1.1,0,2.4-0.4,3.2-1.3l0.9,1.3
		c-1.1,1-2.6,1.6-4.3,1.6c-3.2,0-5.6-2.3-5.6-5.6C470.3,103.4,472.6,100.8,475.7,100.8z M472.4,105.7h6.6c0-1.4-1-3.2-3.3-3.2
		C473.6,102.5,472.5,104.2,472.4,105.7z"/>
	<path class="st2" d="M483.5,97h10v2h-7.7v4.3h7.6v2h-7.6v6.6h-2.2V97z"/>
	<path class="st2" d="M495.5,98.1c0-0.7,0.6-1.3,1.3-1.3c0.7,0,1.3,0.6,1.3,1.3s-0.6,1.3-1.3,1.3C496.1,99.4,495.5,98.8,495.5,98.1z
		 M495.8,101.1h2v10.7h-2V101.1z"/>
	<path class="st2" d="M505.7,100.8c3.2,0,5.2,2.5,5.2,5.8v0.5h-8.5c0.2,1.8,1.5,3.3,3.6,3.3c1.1,0,2.4-0.4,3.2-1.3l0.9,1.3
		c-1.1,1-2.6,1.6-4.3,1.6c-3.2,0-5.6-2.3-5.6-5.6C500.3,103.4,502.6,100.8,505.7,100.8z M502.4,105.7h6.6c0-1.4-1-3.2-3.3-3.2
		C503.5,102.5,502.5,104.2,502.4,105.7z"/>
	<path class="st2" d="M513.4,97h2v14.8h-2V97z"/>
	<path class="st2" d="M526.3,110.3c-0.8,1.1-2.1,1.8-3.5,1.8c-2.8,0-4.8-2.1-4.8-5.6c0-3.4,2-5.6,4.8-5.6c1.4,0,2.6,0.7,3.5,1.8V97
		h2v14.8h-2V110.3z M526.3,104.2c-0.6-0.9-1.8-1.6-3-1.6c-2,0-3.2,1.6-3.2,3.9c0,2.2,1.2,3.8,3.2,3.8c1.2,0,2.4-0.7,3-1.6V104.2z"/>
</g>
<g>
	<path class="st2" d="M435.2,191.3c-0.8,0.9-2.1,1.4-3.5,1.4c-1.8,0-3.7-1.2-3.7-3.6c0-2.4,1.9-3.5,3.7-3.5c1.4,0,2.7,0.5,3.5,1.4
		v-1.8c0-1.3-1.1-2.1-2.6-2.1c-1.2,0-2.3,0.5-3.2,1.4l-0.9-1.4c1.2-1.2,2.7-1.8,4.4-1.8c2.3,0,4.3,1,4.3,3.8v7.2h-2V191.3z
		 M435.2,188.3c-0.6-0.8-1.6-1.2-2.8-1.2c-1.4,0-2.5,0.9-2.5,2.1s1,2.1,2.5,2.1c1.1,0,2.2-0.4,2.8-1.2V188.3z"/>
	<path class="st2" d="M440.9,183.5h-1.8v-1.8h1.8v-0.7c0-2.3,1.4-3.6,3.3-3.6c0.7,0,1.3,0.1,1.8,0.4l-0.5,1.5
		c-0.3-0.2-0.6-0.2-1-0.2c-1,0-1.6,0.7-1.6,2v0.7h2.2v1.8h-2.2v9h-2V183.5z"/>
	<path class="st2" d="M447.4,190.1v-6.6h-1.8v-1.8h1.8v-2.9h2v2.9h2.2v1.8h-2.2v6.2c0,0.8,0.4,1.3,1,1.3c0.5,0,0.9-0.2,1.1-0.4
		l0.5,1.5c-0.4,0.4-1,0.7-2.1,0.7C448.3,192.8,447.4,191.8,447.4,190.1z"/>
	<path class="st2" d="M458.5,181.5c3.2,0,5.2,2.5,5.2,5.8v0.5h-8.5c0.2,1.8,1.5,3.3,3.6,3.3c1.1,0,2.4-0.4,3.2-1.3l0.9,1.3
		c-1.1,1-2.6,1.6-4.3,1.6c-3.2,0-5.6-2.3-5.6-5.6C453.1,184,455.4,181.5,458.5,181.5z M455.2,186.4h6.6c0-1.4-1-3.2-3.3-3.2
		C456.4,183.2,455.3,184.9,455.2,186.4z"/>
	<path class="st2" d="M466.3,181.8h2v1.6c0.8-1.1,2.1-1.9,3.5-1.9v2c-0.2,0-0.4-0.1-0.7-0.1c-1,0-2.4,0.8-2.8,1.6v7.5h-2V181.8z"/>
	<path class="st2" d="M473.8,177.7h10v2H476v4.3h7.6v2H476v6.6h-2.2V177.7z"/>
	<path class="st2" d="M485.8,178.8c0-0.7,0.6-1.3,1.3-1.3c0.7,0,1.3,0.6,1.3,1.3s-0.6,1.3-1.3,1.3
		C486.4,180.1,485.8,179.5,485.8,178.8z M486.1,181.8h2v10.7h-2V181.8z"/>
	<path class="st2" d="M496,181.5c3.2,0,5.2,2.5,5.2,5.8v0.5h-8.5c0.2,1.8,1.5,3.3,3.6,3.3c1.1,0,2.4-0.4,3.2-1.3l0.9,1.3
		c-1.1,1-2.6,1.6-4.3,1.6c-3.2,0-5.6-2.3-5.6-5.6C490.6,184,492.9,181.5,496,181.5z M492.7,186.4h6.6c0-1.4-1-3.2-3.3-3.2
		C493.9,183.2,492.8,184.9,492.7,186.4z"/>
	<path class="st2" d="M503.7,177.7h2v14.8h-2V177.7z"/>
	<path class="st2" d="M516.6,191c-0.8,1.1-2.1,1.8-3.5,1.8c-2.8,0-4.8-2.1-4.8-5.6c0-3.4,2-5.6,4.8-5.6c1.4,0,2.6,0.7,3.5,1.8v-5.6
		h2v14.8h-2V191z M516.6,184.9c-0.6-0.9-1.8-1.6-3-1.6c-2,0-3.2,1.6-3.2,3.9c0,2.2,1.2,3.8,3.2,3.8c1.2,0,2.4-0.7,3-1.6V184.9z"/>
</g>
<g>
	<g>
		<line class="st3" x1="23.5" y1="106" x2="121.1" y2="106"/>
		<g>
			<polygon class="st4" points="116.8,121 142.7,106 116.8,91 			"/>
		</g>
	</g>
</g>
<g>
	<g>
		<line class="st3" x1="48.5" y1="186" x2="144.5" y2="186"/>
		<g>
			<polygon class="st4" points="52.9,201 27,186 52.9,171 			"/>
		</g>
	</g>
</g>
<g>
	<g>
		<line class="st3" x1="276" y1="106" x2="386.5" y2="106"/>
		<g>
			<polygon class="st4" points="382.1,121 408,106 382.1,91 			"/>
		</g>
	</g>
</g>
<g>
	<g>
		<line class="st3" x1="297.5" y1="186" x2="408" y2="186"/>
		<g>
			<polygon class="st4" points="301.9,201 276,186 301.9,171 			"/>
		</g>
	</g>
</g>
<g>
	<g>
		<path class="st3" d="M538.7,106h190.7c6.6,0,12,5.4,12,12v56.5c0,6.6-5.4,12-12,12H560.2"/>
		<g>
			<polygon class="st4" points="564.6,171.6 538.7,186.5 564.6,201.5 			"/>
		</g>
	</g>
</g>
<g>
	<path class="st4" d="M626.1,203.1c-0.9,0.5-1.7,1.6-1.8,2.5c0.1,0,0.3-0.1,0.4-0.1c0.8,0,1.4,0.6,1.4,1.5c0,0.9-0.7,1.6-1.6,1.6
		c-1,0-1.8-0.8-1.8-2.2c0-1.7,1-3.3,2.3-4.3L626.1,203.1z M630.7,203.1c-0.9,0.5-1.7,1.6-1.8,2.5c0.1,0,0.2-0.1,0.4-0.1
		c0.8,0,1.4,0.6,1.4,1.5c0,0.9-0.7,1.6-1.6,1.6c-1,0-1.8-0.8-1.8-2.2c0-1.7,1-3.3,2.3-4.3L630.7,203.1z"/>
	<path class="st4" d="M632.3,207.3h2.6l4,10.1l4-10.1h2.6l-5.3,12.9h-2.6L632.3,207.3z"/>
	<path class="st4" d="M647,207.8c0.9-0.5,1.7-1.6,1.8-2.5c-0.1,0-0.3,0.1-0.4,0.1c-0.8,0-1.4-0.6-1.4-1.5c0-0.9,0.7-1.7,1.6-1.7
		c1,0,1.9,0.8,1.9,2.2c0,1.8-1,3.4-2.3,4.3L647,207.8z M651.6,207.8c0.9-0.5,1.7-1.6,1.8-2.5c-0.1,0-0.3,0.1-0.4,0.1
		c-0.8,0-1.5-0.6-1.5-1.5c0-0.9,0.7-1.7,1.6-1.7c1,0,1.9,0.8,1.9,2.2c0,1.8-1,3.4-2.3,4.3L651.6,207.8z"/>
</g>
<g>
	<path class="st4" d="M312.2,205.1c-0.9,0.5-1.7,1.6-1.8,2.5c0.1,0,0.3-0.1,0.4-0.1c0.8,0,1.4,0.6,1.4,1.5c0,0.9-0.7,1.6-1.6,1.6
		c-1,0-1.8-0.8-1.8-2.2c0-1.7,1-3.3,2.3-4.3L312.2,205.1z M316.8,205.1c-0.9,0.5-1.7,1.6-1.8,2.5c0.1,0,0.2-0.1,0.4-0.1
		c0.8,0,1.4,0.6,1.4,1.5c0,0.9-0.7,1.6-1.6,1.6c-1,0-1.8-0.8-1.8-2.2c0-1.7,1-3.3,2.3-4.3L316.8,205.1z"/>
	<path class="st4" d="M318.3,209.3h2.6l4,10.1l4-10.1h2.6l-5.3,12.9h-2.6L318.3,209.3z"/>
	<path class="st4" d="M340.4,218.8c0.9,1,2.6,1.8,4.3,1.8c1.8,0,2.8-0.7,2.8-1.8c0-1.3-1.5-1.7-3.1-2.1c-2.2-0.5-4.7-1.1-4.7-3.9
		c0-2.1,1.8-3.8,4.9-3.8c2.2,0,3.8,0.8,4.9,1.8l-1.1,1.7c-0.7-0.9-2.2-1.6-3.8-1.6s-2.6,0.6-2.6,1.7c0,1.1,1.4,1.5,3,1.9
		c2.2,0.5,4.9,1.1,4.9,4.1c0,2.2-1.8,3.9-5.2,3.9c-2.2,0-4-0.7-5.4-2L340.4,218.8z"/>
	<path class="st4" d="M352.3,220.1c6.7-5.1,9.7-7.8,9.7-10.6c0-2.1-1.7-3-3.5-3c-2.1,0-3.7,0.9-4.8,2.2l-1.6-1.7
		c1.5-1.8,3.9-2.8,6.4-2.8c3.2,0,6.2,1.8,6.2,5.4c0,3.5-3.3,6.6-8.2,10.3h8.3v2.3h-12.5V220.1z"/>
	<path class="st4" d="M368.2,209.8c0.9-0.5,1.7-1.6,1.8-2.5c-0.1,0-0.3,0.1-0.4,0.1c-0.8,0-1.4-0.6-1.4-1.5c0-0.9,0.7-1.7,1.6-1.7
		c1,0,1.9,0.8,1.9,2.2c0,1.8-1,3.4-2.3,4.3L368.2,209.8z M372.8,209.8c0.9-0.5,1.7-1.6,1.8-2.5c-0.1,0-0.3,0.1-0.4,0.1
		c-0.8,0-1.5-0.6-1.5-1.5c0-0.9,0.7-1.7,1.6-1.7c1,0,1.9,0.8,1.9,2.2c0,1.8-1,3.4-2.3,4.3L372.8,209.8z"/>
</g>
<g>
	<path class="st4" d="M19.7,210.1c-0.9,0.5-1.7,1.6-1.8,2.5c0.1,0,0.3-0.1,0.4-0.1c0.8,0,1.4,0.6,1.4,1.5c0,0.9-0.7,1.6-1.6,1.6
		c-1,0-1.8-0.8-1.8-2.2c0-1.7,1-3.3,2.3-4.3L19.7,210.1z M24.3,210.1c-0.9,0.5-1.7,1.6-1.8,2.5c0.1,0,0.2-0.1,0.4-0.1
		c0.8,0,1.4,0.6,1.4,1.5c0,0.9-0.7,1.6-1.6,1.6c-1,0-1.8-0.8-1.8-2.2c0-1.7,1-3.3,2.3-4.3L24.3,210.1z"/>
	<path class="st4" d="M25.8,214.3h2.6l4,10.1l4-10.1H39l-5.3,12.9h-2.6L25.8,214.3z"/>
	<path class="st4" d="M47.9,223.8c0.9,1,2.6,1.8,4.3,1.8c1.8,0,2.8-0.7,2.8-1.8c0-1.3-1.5-1.7-3.1-2.1c-2.2-0.5-4.7-1.1-4.7-3.9
		c0-2.1,1.8-3.8,4.9-3.8c2.2,0,3.8,0.8,4.9,1.8l-1.1,1.7c-0.7-0.9-2.2-1.6-3.8-1.6s-2.6,0.6-2.6,1.7c0,1.1,1.4,1.5,3,1.9
		c2.2,0.5,4.9,1.1,4.9,4.1c0,2.2-1.8,3.9-5.2,3.9c-2.2,0-4-0.7-5.4-2L47.9,223.8z"/>
	<path class="st4" d="M59.8,225.1c6.7-5.1,9.7-7.8,9.7-10.6c0-2.1-1.7-3-3.5-3c-2.1,0-3.7,0.9-4.8,2.2l-1.6-1.7
		c1.5-1.8,3.9-2.8,6.4-2.8c3.2,0,6.2,1.8,6.2,5.4c0,3.5-3.3,6.6-8.2,10.3h8.3v2.3H59.8V225.1z"/>
	<path class="st4" d="M82.9,223.8c0.9,1,2.6,1.8,4.3,1.8c1.8,0,2.8-0.7,2.8-1.8c0-1.3-1.5-1.7-3.1-2.1c-2.2-0.5-4.7-1.1-4.7-3.9
		c0-2.1,1.8-3.8,4.9-3.8c2.2,0,3.8,0.8,4.9,1.8l-1.1,1.7c-0.7-0.9-2.2-1.6-3.8-1.6c-1.6,0-2.6,0.6-2.6,1.7c0,1.1,1.4,1.5,3,1.9
		c2.2,0.5,4.9,1.1,4.9,4.1c0,2.2-1.8,3.9-5.2,3.9c-2.2,0-4-0.7-5.4-2L82.9,223.8z"/>
	<path class="st4" d="M98.4,212.9l-2.9,3l-1.6-1.6l4.8-4.9h2.3v17.8h-2.7V212.9z"/>
	<path class="st4" d="M104.6,214.8c0.9-0.5,1.7-1.6,1.8-2.5c-0.1,0-0.3,0.1-0.4,0.1c-0.8,0-1.4-0.6-1.4-1.5c0-0.9,0.7-1.7,1.6-1.7
		c1,0,1.9,0.8,1.9,2.2c0,1.8-1,3.4-2.3,4.3L104.6,214.8z M109.2,214.8c0.9-0.5,1.7-1.6,1.8-2.5c-0.1,0-0.3,0.1-0.4,0.1
		c-0.8,0-1.5-0.6-1.5-1.5c0-0.9,0.7-1.7,1.6-1.7c1,0,1.9,0.8,1.9,2.2c0,1.8-1,3.4-2.3,4.3L109.2,214.8z"/>
</g>
</svg>
