<?xml version="1.0" encoding="utf-8"?>
<!-- Generator: Adobe Illustrator 21.0.0, SVG Export Plug-In . SVG Version: 6.00 Build 0)  -->
<!DOCTYPE svg PUBLIC "-//W3C//DTD SVG 1.1//EN" "http://www.w3.org/Graphics/SVG/1.1/DTD/svg11.dtd">
<svg version="1.1" xmlns="http://www.w3.org/2000/svg" xmlns:xlink="http://www.w3.org/1999/xlink" x="0px" y="0px"
	 viewBox="0 0 667.3 356" enable-background="new 0 0 667.3 356" xml:space="preserve">
<g id="Layer_4">
</g>
<g id="Layer_5">
</g>
<g id="Layer_6">
	<path fill="#DC7676" d="M485.9,345.3h-304c-9.5,0-17.3-7.7-17.3-17.3V27.3c0-9.5,7.7-17.3,17.3-17.3h304c9.5,0,17.3,7.7,17.3,17.3
		V328C503.1,337.6,495.4,345.3,485.9,345.3z"/>
	<g>
		<g>
			<path fill="#F8E2D2" d="M430.9,319.4h-194c-6.5,0-11.8-5.3-11.8-11.8v-32c0-6.5,5.3-11.8,11.8-11.8h194c6.5,0,11.8,5.3,11.8,11.8
				v32C442.6,314.2,437.4,319.4,430.9,319.4z"/>
			<g>
				<path fill="#DC7676" d="M268.2,284h-1.6V282h6.9c5.2,0,8.7,3.1,8.7,8.6c0,5.4-3.4,8.6-8.7,8.6h-3.8c-1.1,0-1.6-0.5-1.6-1.6V284z
					 M271.2,297h2.2c3.8,0,6.3-2.3,6.3-6.5c0-4.2-2.5-6.5-6.3-6.5h-2.8v12.4C270.6,296.8,270.8,297,271.2,297z"/>
				<path fill="#DC7676" d="M291.5,291.5h0.5v-0.1c0-2.2-0.8-2.9-2.7-2.9c-0.6,0-2,0.1-2,0.9v0.7h-2.2v-1.2c0-2,3.1-2.3,4.3-2.3
					c4,0,5.1,2.1,5.1,4.8v5.2c0,0.4,0.2,0.5,0.5,0.5h1v2h-2.2c-1.1,0-1.5-0.5-1.5-1.4c0-0.4,0-0.7,0-0.7h0c0,0-1,2.4-3.9,2.4
					c-2.1,0-4.2-1.3-4.2-3.7C284.1,291.7,289.4,291.5,291.5,291.5z M288.8,297.5c2,0,3.3-2.1,3.3-3.9v-0.4h-0.6c-1.8,0-5,0.1-5,2.4
					C286.5,296.5,287.2,297.5,288.8,297.5z"/>
				<path fill="#DC7676" d="M298.6,288.7H297v-1.9h1.7v-3.4h2.3v3.4h2.9v1.9h-2.9v5.6c0,2.5,1.7,2.8,2.6,2.8c0.3,0,0.6,0,0.6,0v2.1
					c0,0-0.3,0-0.8,0c-1.6,0-4.7-0.5-4.7-4.6V288.7z"/>
				<path fill="#DC7676" d="M313.1,291.5h0.5v-0.1c0-2.2-0.8-2.9-2.7-2.9c-0.6,0-2,0.1-2,0.9v0.7h-2.2v-1.2c0-2,3.1-2.3,4.3-2.3
					c4,0,5.1,2.1,5.1,4.8v5.2c0,0.4,0.2,0.5,0.5,0.5h1v2h-2.2c-1.1,0-1.5-0.5-1.5-1.4c0-0.4,0-0.7,0-0.7h0c0,0-1,2.4-3.9,2.4
					c-2.1,0-4.2-1.3-4.2-3.7C305.7,291.7,311.1,291.5,313.1,291.5z M310.4,297.5c2,0,3.3-2.1,3.3-3.9v-0.4h-0.6c-1.8,0-5,0.1-5,2.4
					C308.1,296.5,308.9,297.5,310.4,297.5z"/>
				<path fill="#DC7676" d="M324.9,297h0.3c0.4,0,0.7-0.1,0.8-0.5l5.4-14.5h2.6l5.4,14.5c0.1,0.4,0.4,0.5,0.8,0.5h0.4v2.1h-1.4
					c-1.2,0-1.6-0.3-2-1.4l-1.3-3.5h-6.3l-1.3,3.5c-0.4,1.1-0.8,1.4-2,1.4h-1.3V297z M335.2,292.1l-1.9-5.2
					c-0.3-0.9-0.7-2.4-0.7-2.4h0c0,0-0.3,1.5-0.7,2.4l-1.9,5.2H335.2z"/>
				<path fill="#DC7676" d="M348.2,286.5c1.5,0,4.4,0.6,4.4,2.7v1.3h-2.1v-0.7c0-0.9-1.4-1.3-2.3-1.3c-2.4,0-4.2,1.8-4.2,4.4
					c0,2.8,2,4.4,4.3,4.4c2.3,0,3.8-1.7,3.8-1.7l1,1.7c0,0-1.7,2.1-5,2.1c-3.9,0-6.6-2.7-6.6-6.4
					C341.6,289.3,344.3,286.5,348.2,286.5z"/>
				<path fill="#DC7676" d="M361.2,286.5c1.5,0,4.4,0.6,4.4,2.7v1.3h-2.1v-0.7c0-0.9-1.4-1.3-2.3-1.3c-2.4,0-4.2,1.8-4.2,4.4
					c0,2.8,2,4.4,4.3,4.4c2.3,0,3.8-1.7,3.8-1.7l1,1.7c0,0-1.7,2.1-5,2.1c-3.9,0-6.6-2.7-6.6-6.4
					C354.6,289.3,357.2,286.5,361.2,286.5z"/>
				<path fill="#DC7676" d="M373.7,286.5c3.4,0,5.3,2.6,5.3,5.8c0,0.3-0.1,1-0.1,1h-9c0.1,2.6,2,4.1,4.2,4.1c2.1,0,3.6-1.4,3.6-1.4
					l1,1.7c0,0-1.8,1.8-4.7,1.8c-3.9,0-6.5-2.8-6.5-6.4C367.5,289.1,370.2,286.5,373.7,286.5z M376.5,291.5c-0.1-2-1.4-3.1-2.9-3.1
					c-1.8,0-3.3,1.1-3.6,3.1H376.5z"/>
				<path fill="#DC7676" d="M381.9,295.7c0,0,1.5,1.8,3.7,1.8c1.1,0,2.1-0.5,2.1-1.6c0-2.2-6.7-2-6.7-5.9c0-2.4,2.1-3.4,4.6-3.4
					c1.5,0,4,0.5,4,2.4v1.2h-2.1v-0.6c0-0.7-1.1-1-1.8-1c-1.4,0-2.3,0.5-2.3,1.5c0,2.3,6.7,1.8,6.7,5.9c0,2.2-1.9,3.6-4.5,3.6
					c-3.3,0-4.9-2.2-4.9-2.2L381.9,295.7z"/>
				<path fill="#DC7676" d="M392.9,295.7c0,0,1.5,1.8,3.7,1.8c1.1,0,2.1-0.5,2.1-1.6c0-2.2-6.7-2-6.7-5.9c0-2.4,2.1-3.4,4.6-3.4
					c1.5,0,4,0.5,4,2.4v1.2h-2.1v-0.6c0-0.7-1.1-1-1.8-1c-1.4,0-2.3,0.5-2.3,1.5c0,2.3,6.7,1.8,6.7,5.9c0,2.2-1.9,3.6-4.5,3.6
					c-3.3,0-4.9-2.2-4.9-2.2L392.9,295.7z"/>
			</g>
		</g>
		<g>
			<path fill="#F8E2D2" d="M430.9,250.7h-194c-6.5,0-11.8-5.3-11.8-11.8v-32c0-6.5,5.3-11.8,11.8-11.8h194c6.5,0,11.8,5.3,11.8,11.8
				v32C442.6,245.5,437.4,250.7,430.9,250.7z"/>
			<g>
				<path fill="#DC7676" d="M252.9,215.4h-1.6v-2.1h7.3c2.9,0,5,1.6,5,4.4c0,1.9-1,3.1-2.1,3.7v0c1.8,0.5,2.8,2.2,2.8,4.2
					c0,3.2-2.5,4.9-5.5,4.9h-4.3c-1.1,0-1.6-0.5-1.6-1.6V215.4z M258.6,220.5c1.5,0,2.5-1.1,2.5-2.6c0-1.5-0.9-2.5-2.5-2.5h-3.3v5.1
					H258.6z M255.8,228.3h3.1c1.8,0,2.9-1.2,2.9-2.9s-1.1-2.9-2.9-2.9h-3.6v5.3C255.3,228.1,255.5,228.3,255.8,228.3z"/>
				<path fill="#DC7676" d="M267.4,220.7c0-0.4-0.2-0.5-0.5-0.5h-1v-2h2.3c1.1,0,1.6,0.5,1.6,1.5v5.8c0,1.7,0.3,3.1,2.3,3.1
					c2.5,0,4-2.2,4-4.6v-5.8h2.4v9.7c0,0.4,0.2,0.5,0.5,0.5h1v2h-2.3c-1,0-1.6-0.5-1.6-1.4v-0.5c0-0.4,0-0.7,0-0.7h0
					c-0.5,1.2-2.1,2.8-4.5,2.8c-2.8,0-4.2-1.5-4.2-4.7V220.7z"/>
				<path fill="#DC7676" d="M282.3,227c0,0,1.5,1.8,3.7,1.8c1.1,0,2.1-0.5,2.1-1.6c0-2.2-6.7-2-6.7-5.9c0-2.4,2.1-3.4,4.6-3.4
					c1.5,0,4,0.5,4,2.4v1.2H288v-0.6c0-0.7-1.1-1-1.8-1c-1.4,0-2.3,0.5-2.3,1.5c0,2.3,6.7,1.8,6.7,5.9c0,2.2-1.9,3.6-4.5,3.6
					c-3.3,0-4.9-2.2-4.9-2.2L282.3,227z"/>
				<path fill="#DC7676" d="M293.7,220.7c0-0.4-0.2-0.5-0.5-0.5h-1v-2h2.3c1.1,0,1.6,0.5,1.6,1.6v8.2c0,0.4,0.2,0.5,0.5,0.5h1v2
					h-2.3c-1.1,0-1.6-0.5-1.6-1.6V220.7z M293.7,213.3h2.1v2.5h-2.1V213.3z"/>
				<path fill="#DC7676" d="M300.2,220.7c0-0.4-0.2-0.5-0.5-0.5h-1v-2h2.3c1,0,1.6,0.5,1.6,1.4v0.5c0,0.4,0,0.7,0,0.7h0
					c0.5-1.1,1.9-2.8,4.6-2.8c2.9,0,4.2,1.6,4.2,4.7v5.3c0,0.4,0.2,0.5,0.5,0.5h1v2h-2.3c-1.1,0-1.6-0.5-1.6-1.6v-5.8
					c0-1.7-0.3-3.1-2.3-3.1c-1.9,0-3.4,1.2-3.9,3c-0.2,0.5-0.2,1-0.2,1.7v5.8h-2.4V220.7z"/>
				<path fill="#DC7676" d="M320.4,217.8c3.4,0,5.3,2.6,5.3,5.8c0,0.3-0.1,1-0.1,1h-9c0.1,2.6,2,4.1,4.2,4.1c2.1,0,3.6-1.4,3.6-1.4
					l1,1.7c0,0-1.8,1.8-4.7,1.8c-3.9,0-6.5-2.8-6.5-6.4C314.2,220.4,316.9,217.8,320.4,217.8z M323.3,222.8c-0.1-2-1.4-3.1-2.9-3.1
					c-1.8,0-3.3,1.1-3.6,3.1H323.3z"/>
				<path fill="#DC7676" d="M328.6,227c0,0,1.5,1.8,3.7,1.8c1.1,0,2.1-0.5,2.1-1.6c0-2.2-6.7-2-6.7-5.9c0-2.4,2.1-3.4,4.6-3.4
					c1.5,0,4,0.5,4,2.4v1.2h-2.1v-0.6c0-0.7-1.1-1-1.8-1c-1.4,0-2.3,0.5-2.3,1.5c0,2.3,6.7,1.8,6.7,5.9c0,2.2-1.9,3.6-4.5,3.6
					c-3.3,0-4.9-2.2-4.9-2.2L328.6,227z"/>
				<path fill="#DC7676" d="M339.7,227c0,0,1.5,1.8,3.7,1.8c1.1,0,2.1-0.5,2.1-1.6c0-2.2-6.7-2-6.7-5.9c0-2.4,2.1-3.4,4.6-3.4
					c1.5,0,4,0.5,4,2.4v1.2h-2.1v-0.6c0-0.7-1.1-1-1.8-1c-1.4,0-2.3,0.5-2.3,1.5c0,2.3,6.7,1.8,6.7,5.9c0,2.2-1.9,3.6-4.5,3.6
					c-3.3,0-4.9-2.2-4.9-2.2L339.7,227z"/>
				<path fill="#DC7676" d="M357.9,215.9c0-0.4-0.2-0.5-0.5-0.5h-1v-2.1h2.5c1.1,0,1.6,0.5,1.6,1.6v13c0,0.3,0.2,0.5,0.5,0.5h4.7
					c0.3,0,0.5-0.2,0.5-0.5v-1.1h2.2v2.2c0,1.1-0.5,1.6-1.6,1.6h-7.3c-1.1,0-1.6-0.5-1.6-1.6V215.9z"/>
				<path fill="#DC7676" d="M375.8,217.8c3.7,0,6.6,2.7,6.6,6.4c0,3.7-3,6.5-6.6,6.5c-3.7,0-6.6-2.7-6.6-6.5
					C369.2,220.5,372.2,217.8,375.8,217.8z M375.8,228.7c2.3,0,4.2-1.8,4.2-4.4c0-2.6-1.9-4.4-4.2-4.4c-2.3,0-4.2,1.8-4.2,4.4
					C371.6,226.8,373.5,228.7,375.8,228.7z"/>
				<path fill="#DC7676" d="M389.6,217.8c3.1,0,3.9,1.9,3.9,1.9h0c0,0,0-0.2,0-0.4c0-0.7,0.4-1.2,1.4-1.2h2.3v2h-1
					c-0.3,0-0.5,0.2-0.5,0.5v9.3c0,4.1-3.1,5.6-6.2,5.6c-1.5,0-3-0.4-4.2-1l0.8-1.9c0,0,1.5,0.8,3.4,0.8c2.1,0,3.9-0.9,3.9-3.4v-0.8
					c0-0.4,0-0.8,0-0.8h0c-0.7,1.2-1.9,1.9-3.7,1.9c-3.4,0-5.5-2.7-5.5-6.3C384.2,220.5,386.2,217.8,389.6,217.8z M393.5,224
					c0-3.2-1.6-4.1-3.5-4.1c-2.1,0-3.4,1.6-3.4,4.1c0,2.6,1.3,4.3,3.5,4.3C391.9,228.2,393.5,227.2,393.5,224z"/>
				<path fill="#DC7676" d="M400,220.7c0-0.4-0.2-0.5-0.5-0.5h-1v-2h2.3c1.1,0,1.6,0.5,1.6,1.6v8.2c0,0.4,0.2,0.5,0.5,0.5h1v2h-2.3
					c-1.1,0-1.6-0.5-1.6-1.6V220.7z M400,213.3h2.1v2.5H400V213.3z"/>
				<path fill="#DC7676" d="M411.9,217.8c1.5,0,4.4,0.6,4.4,2.7v1.3h-2.1v-0.7c0-0.9-1.4-1.3-2.3-1.3c-2.4,0-4.2,1.8-4.2,4.4
					c0,2.8,2,4.4,4.3,4.4c2.3,0,3.8-1.7,3.8-1.7l1,1.7c0,0-1.7,2.1-5,2.1c-3.9,0-6.6-2.7-6.6-6.4C405.3,220.7,408,217.8,411.9,217.8
					z"/>
			</g>
		</g>
		<g>
			<path fill="#D54599" d="M430.9,182h-194c-6.5,0-11.8-5.3-11.8-11.8v-32c0-6.5,5.3-11.7,11.8-11.7h194c6.5,0,11.8,5.3,11.8,11.7
				v32C442.6,176.8,437.4,182,430.9,182z"/>
		</g>
		<g>
			<path fill="#F8E2D2" d="M430.9,113.3h-194c-6.5,0-11.8-5.3-11.8-11.8v-32c0-6.5,5.3-11.8,11.8-11.8h194c6.5,0,11.8,5.3,11.8,11.8
				v32C442.6,108.1,437.4,113.3,430.9,113.3z"/>
			<g>
				<path fill="#DC7676" d="M242.2,78h-3.4c-0.3,0-0.5,0.2-0.5,0.5v1.1H236v-2.3c0-1.1,0.4-1.5,1.5-1.5h11.8c1.1,0,1.5,0.4,1.5,1.5
					v2.3h-2.2v-1.1c0-0.4-0.2-0.5-0.5-0.5h-3.4V93h-2.4V78z"/>
				<path fill="#DC7676" d="M252.1,83.3c0-0.4-0.2-0.5-0.5-0.5h-1v-2h2.2c1.1,0,1.6,0.4,1.6,1.4v0.8c0,0.5,0,0.9,0,0.9h0
					c0.6-1.8,2-3.2,3.9-3.2c0.3,0,0.6,0,0.6,0V83c0,0-0.3-0.1-0.7-0.1c-1.5,0-2.9,1.1-3.4,2.9c-0.2,0.7-0.3,1.5-0.3,2.2v5h-2.4V83.3
					z"/>
				<path fill="#DC7676" d="M267,85.4h0.5v-0.1c0-2.2-0.8-2.9-2.7-2.9c-0.6,0-2,0.1-2,0.9V84h-2.2v-1.2c0-2,3.1-2.3,4.3-2.3
					c4,0,5.1,2.1,5.1,4.8v5.2c0,0.4,0.2,0.5,0.5,0.5h1v2h-2.2c-1.1,0-1.5-0.5-1.5-1.4c0-0.4,0-0.7,0-0.7h0c0,0-1,2.4-3.9,2.4
					c-2.1,0-4.2-1.3-4.2-3.7C259.6,85.6,264.9,85.4,267,85.4z M264.2,91.4c2,0,3.3-2.1,3.3-3.9v-0.4h-0.6c-1.8,0-5,0.1-5,2.4
					C261.9,90.5,262.7,91.4,264.2,91.4z"/>
				<path fill="#DC7676" d="M273.9,83.3c0-0.4-0.2-0.5-0.5-0.5h-1v-2h2.3c1,0,1.6,0.5,1.6,1.4v0.5c0,0.4,0,0.7,0,0.7h0
					c0.5-1.1,1.9-2.8,4.6-2.8c2.9,0,4.2,1.6,4.2,4.7v5.3c0,0.4,0.2,0.5,0.5,0.5h1v2h-2.3c-1.1,0-1.6-0.5-1.6-1.6v-5.8
					c0-1.7-0.3-3.1-2.3-3.1c-1.9,0-3.4,1.2-3.9,3c-0.2,0.5-0.2,1-0.2,1.7V93h-2.4V83.3z"/>
				<path fill="#DC7676" d="M288.9,89.6c0,0,1.5,1.8,3.7,1.8c1.1,0,2.1-0.5,2.1-1.6c0-2.2-6.7-2-6.7-5.9c0-2.4,2.1-3.4,4.6-3.4
					c1.5,0,4,0.5,4,2.4V84h-2.1v-0.6c0-0.7-1.1-1-1.8-1c-1.4,0-2.3,0.5-2.3,1.5c0,2.3,6.7,1.8,6.7,5.9c0,2.2-1.9,3.6-4.5,3.6
					c-3.3,0-4.9-2.2-4.9-2.2L288.9,89.6z"/>
				<path fill="#DC7676" d="M300.2,83.3c0-0.4-0.2-0.5-0.5-0.5h-1v-2h2.2c1.1,0,1.5,0.5,1.5,1.2c0,0.4,0,0.7,0,0.7h0
					c0,0,1-2.2,4.1-2.2c3.3,0,5.4,2.6,5.4,6.4c0,3.9-2.4,6.4-5.6,6.4c-2.7,0-3.8-2-3.8-2h0c0,0,0,0.4,0,1.1v5.5h-2.4V83.3z
					 M305.9,91.3c1.9,0,3.5-1.6,3.5-4.4c0-2.7-1.4-4.4-3.5-4.4c-1.8,0-3.5,1.3-3.5,4.4C302.5,89.1,303.6,91.3,305.9,91.3z"/>
				<path fill="#DC7676" d="M320.3,80.4c3.7,0,6.6,2.7,6.6,6.4c0,3.7-3,6.5-6.6,6.5s-6.6-2.7-6.6-6.5
					C313.7,83.1,316.6,80.4,320.3,80.4z M320.3,91.3c2.3,0,4.2-1.8,4.2-4.4c0-2.6-1.9-4.4-4.2-4.4c-2.3,0-4.2,1.8-4.2,4.4
					C316.1,89.4,318,91.3,320.3,91.3z"/>
				<path fill="#DC7676" d="M329.8,83.3c0-0.4-0.2-0.5-0.5-0.5h-1v-2h2.2c1.1,0,1.6,0.4,1.6,1.4v0.8c0,0.5,0,0.9,0,0.9h0
					c0.6-1.8,2-3.2,3.9-3.2c0.3,0,0.6,0,0.6,0V83c0,0-0.3-0.1-0.7-0.1c-1.5,0-2.9,1.1-3.4,2.9c-0.2,0.7-0.3,1.5-0.3,2.2v5h-2.4V83.3
					z"/>
				<path fill="#DC7676" d="M339.3,82.6h-1.6v-1.9h1.7v-3.4h2.3v3.4h2.9v1.9h-2.9v5.6c0,2.5,1.7,2.8,2.6,2.8c0.3,0,0.6,0,0.6,0v2.1
					c0,0-0.3,0-0.8,0c-1.6,0-4.7-0.5-4.7-4.6V82.6z"/>
				<path fill="#DC7676" d="M357,75.2h2.1c-1.8,3-2.7,6.2-2.7,9.7c0,3.6,0.9,7.2,2.8,10.5h-2.1c-1.8-2.8-2.8-6.6-2.8-10.3
					C354.3,81.4,355.2,78,357,75.2z"/>
				<path fill="#DC7676" d="M362.8,78.5c0-0.4-0.2-0.5-0.5-0.5h-1v-2.1h2.5c1.1,0,1.6,0.5,1.6,1.6v6h8.7v-6c0-1.1,0.5-1.6,1.6-1.6
					h2.5V78h-1c-0.3,0-0.5,0.2-0.5,0.5V93h-2.4v-7.5h-8.7V93h-2.4V78.5z"/>
				<path fill="#DC7676" d="M385.4,78h-3.5c-0.3,0-0.5,0.2-0.5,0.5v1.1h-2.2v-2.3c0-1.1,0.4-1.5,1.5-1.5h11.8c1.1,0,1.5,0.4,1.5,1.5
					v2.3h-2.2v-1.1c0-0.4-0.2-0.5-0.5-0.5h-3.4V93h-2.4V78z"/>
				<path fill="#DC7676" d="M400.8,78h-3.5c-0.3,0-0.5,0.2-0.5,0.5v1.1h-2.2v-2.3c0-1.1,0.4-1.5,1.5-1.5h11.8c1.1,0,1.5,0.4,1.5,1.5
					v2.3h-2.2v-1.1c0-0.4-0.2-0.5-0.5-0.5h-3.4V93h-2.4V78z"/>
				<path fill="#DC7676" d="M412.2,78h-1.6v-2.1h7.6c3.1,0,5.4,2.1,5.4,5.4c0,3.3-2.2,5.4-5.4,5.4h-3.5V93h-2.4V78z M417.8,84.6
					c2,0,3.3-1.3,3.3-3.4c0-2.1-1.2-3.3-3.2-3.3h-3.2v6.6H417.8z"/>
				<path fill="#DC7676" d="M428,84.9c0-3.4-0.9-6.7-2.7-9.7h2.1c1.8,2.8,2.7,6.2,2.7,9.9c0,3.7-1,7.5-2.8,10.3h-2.1
					C427,92.1,428,88.5,428,84.9z"/>
			</g>
		</g>
	</g>
	<g>
		<path fill="#F8E2D2" d="M180.5,37.8h0.8c0.3,0,0.5-0.2,0.5-0.5l1.2-14.6h2.5l4.1,9.2c0.4,0.9,0.9,2.2,0.9,2.2h0
			c0,0,0.4-1.2,0.9-2.2l4.1-9.2h2.5l1.2,14.6c0,0.3,0.2,0.5,0.5,0.5h0.8v2.1h-2.2c-1.1,0-1.5-0.5-1.6-1.6l-0.7-9.1
			c-0.1-1,0-2.5,0-2.5h0c0,0-0.5,1.6-0.9,2.5l-3.5,7.6h-2.1l-3.5-7.6c-0.4-0.9-0.9-2.6-0.9-2.6h0c0,0,0,1.5,0,2.6l-0.7,9.1
			c-0.1,1.1-0.5,1.6-1.6,1.6h-2.2V37.8z"/>
		<path fill="#F8E2D2" d="M203.9,43c1,0,1.7-0.7,2.2-1.8l0.6-1.3l-4.2-9.8c-0.2-0.4-0.4-0.5-0.8-0.5h-0.3v-2h1.4
			c1,0,1.4,0.3,1.8,1.2l2.8,7c0.2,0.6,0.4,1.5,0.4,1.5h0c0,0,0.2-0.9,0.4-1.5l2.6-7c0.4-1,0.8-1.2,1.8-1.2h1.4v2h-0.3
			c-0.4,0-0.6,0.1-0.8,0.5L208,42.2c-0.8,1.9-2.3,2.9-4,2.9c-1.8,0-2.9-1.2-2.9-1.2l1-1.7C202.1,42.2,202.8,43,203.9,43z"/>
		<path fill="#F8E2D2" d="M221.2,37.8h0.3c0.4,0,0.7-0.1,0.8-0.5l5.4-14.6h2.6l5.4,14.6c0.1,0.4,0.4,0.5,0.8,0.5h0.4v2.1h-1.4
			c-1.2,0-1.6-0.3-2-1.4l-1.3-3.6h-6.4l-1.3,3.6c-0.4,1.1-0.8,1.4-2,1.4h-1.3V37.8z M231.7,32.9l-1.9-5.3c-0.3-0.9-0.7-2.4-0.7-2.4
			h0c0,0-0.3,1.5-0.7,2.4l-1.9,5.3H231.7z"/>
		<path fill="#F8E2D2" d="M239.3,30.1c0-0.4-0.2-0.5-0.5-0.5h-1v-2h2.2c1.1,0,1.5,0.5,1.5,1.2c0,0.4,0,0.7,0,0.7h0
			c0,0,1-2.2,4.1-2.2c3.3,0,5.5,2.6,5.5,6.5c0,3.9-2.4,6.5-5.6,6.5c-2.7,0-3.8-2-3.8-2h0c0,0,0,0.4,0,1.1v5.5h-2.4V30.1z
			 M245.1,38.2c2,0,3.6-1.6,3.6-4.4c0-2.7-1.4-4.4-3.5-4.4c-1.8,0-3.6,1.3-3.6,4.5C241.6,36,242.8,38.2,245.1,38.2z"/>
		<path fill="#F8E2D2" d="M254.1,30.1c0-0.4-0.2-0.5-0.5-0.5h-1v-2h2.2c1.1,0,1.5,0.5,1.5,1.2c0,0.4,0,0.7,0,0.7h0
			c0,0,1-2.2,4.1-2.2c3.3,0,5.5,2.6,5.5,6.5c0,3.9-2.4,6.5-5.6,6.5c-2.7,0-3.8-2-3.8-2h0c0,0,0,0.4,0,1.1v5.5h-2.4V30.1z
			 M259.9,38.2c2,0,3.6-1.6,3.6-4.4c0-2.7-1.4-4.4-3.5-4.4c-1.8,0-3.6,1.3-3.6,4.5C256.4,36,257.6,38.2,259.9,38.2z"/>
	</g>
	<g>
		<path fill="#DC7676" d="M653.5,285.7H503.1v12h150.4c3.3,0,6-2.7,6-6S656.8,285.7,653.5,285.7z"/>
		<path fill="#F8E2D2" d="M457,285.7c-3.3,0-6,2.7-6,6s2.7,6,6,6h46.1v-12H457z"/>
	</g>
	
		<polyline fill="none" stroke="#F8E2D2" stroke-width="12" stroke-linecap="round" stroke-linejoin="round" stroke-miterlimit="10" points="
		455.3,83.3 476.7,83.3 476.7,291.7 	"/>
	
		<line fill="none" stroke="#F8E2D2" stroke-width="12" stroke-linecap="round" stroke-linejoin="round" stroke-miterlimit="10" x1="455.3" y1="221.3" x2="476.7" y2="221.3"/>
	<g>
		<path fill="#DC7676" d="M514.7,264.8c0-0.3-0.2-0.5-0.5-0.5h-1v-1.9h2.2c1,0,1.4,0.4,1.4,1.4v8.6c0,2.3,1.5,3.7,3.7,3.7
			c2.3,0,3.7-1.4,3.7-3.8v-8.6c0-1,0.4-1.4,1.4-1.4h2.2v1.9h-1c-0.3,0-0.5,0.2-0.5,0.5v7.8c0,3.4-2.4,5.7-5.9,5.7
			c-3.6,0-6-2.3-6-5.7V264.8z"/>
		<path fill="#DC7676" d="M530.4,274.9c0,0,1.3,1.7,3.4,1.7c1,0,1.9-0.5,1.9-1.4c0-2-6.1-1.8-6.1-5.4c0-2.1,1.9-3.1,4.2-3.1
			c1.3,0,3.7,0.5,3.7,2.2v1.1h-1.9v-0.6c0-0.7-1-1-1.7-1c-1.3,0-2.1,0.4-2.1,1.3c0,2.1,6.1,1.7,6.1,5.4c0,2-1.8,3.3-4.1,3.3
			c-3,0-4.5-2-4.5-2L530.4,274.9z"/>
		<path fill="#DC7676" d="M545.1,266.6c3.1,0,4.8,2.3,4.8,5.2c0,0.3-0.1,0.9-0.1,0.9h-8.2c0.1,2.4,1.9,3.7,3.8,3.7
			c1.9,0,3.3-1.3,3.3-1.3l0.9,1.5c0,0-1.7,1.6-4.3,1.6c-3.5,0-5.9-2.5-5.9-5.9C539.5,268.9,541.9,266.6,545.1,266.6z M547.7,271.2
			c-0.1-1.9-1.2-2.9-2.6-2.9c-1.6,0-3,1-3.3,2.9H547.7z"/>
		<path fill="#DC7676" d="M552.8,269.2c0-0.3-0.2-0.5-0.5-0.5h-0.9v-1.8h2c1,0,1.4,0.4,1.4,1.3v0.7c0,0.4,0,0.8,0,0.8h0
			c0.5-1.6,1.8-2.9,3.5-2.9c0.3,0,0.6,0,0.6,0v2.1c0,0-0.3-0.1-0.6-0.1c-1.4,0-2.6,1-3.1,2.6c-0.2,0.6-0.3,1.3-0.3,2v4.6h-2.1V269.2
			z"/>
		<path fill="#DC7676" d="M567.7,264.3h-1.4v-1.9h6.3c4.8,0,7.9,2.9,7.9,7.8c0,5-3.1,7.8-7.9,7.8h-3.5c-1,0-1.4-0.4-1.4-1.4V264.3z
			 M570.4,276.1h2c3.5,0,5.7-2.1,5.7-5.9c0-3.8-2.3-5.9-5.7-5.9h-2.5v11.3C569.9,276,570.1,276.1,570.4,276.1z"/>
		<path fill="#DC7676" d="M587.7,266.6c3.1,0,4.8,2.3,4.8,5.2c0,0.3-0.1,0.9-0.1,0.9h-8.2c0.1,2.4,1.9,3.7,3.8,3.7
			c1.9,0,3.3-1.3,3.3-1.3l0.9,1.5c0,0-1.7,1.6-4.3,1.6c-3.5,0-5.9-2.5-5.9-5.9C582.1,268.9,584.6,266.6,587.7,266.6z M590.4,271.2
			c-0.1-1.9-1.2-2.9-2.6-2.9c-1.6,0-3,1-3.3,2.9H590.4z"/>
		<path fill="#DC7676" d="M595.4,268.6H594v-1.7h1.4v-0.4c0-3.7,2.8-4.2,4.2-4.2c0.5,0,0.8,0.1,0.8,0.1v1.8c0,0-0.2,0-0.6,0
			c-0.8,0-2.3,0.3-2.3,2.4v0.3h5.6c1,0,1.4,0.4,1.4,1.4v7.5c0,0.3,0.2,0.5,0.5,0.5h0.9v1.8h-2.1c-1,0-1.4-0.4-1.4-1.4v-7.6
			c0-0.3-0.2-0.5-0.5-0.5h-4.4v9.5h-2.1V268.6z M602.5,262.4h1.9v2.2h-1.9V262.4z"/>
		<path fill="#DC7676" d="M608.5,269.2c0-0.3-0.2-0.5-0.5-0.5h-0.9v-1.8h2.1c1,0,1.4,0.4,1.4,1.2v0.4c0,0.4,0,0.6,0,0.6h0
			c0.4-1,1.8-2.6,4.2-2.6c2.7,0,3.8,1.4,3.8,4.3v4.8c0,0.3,0.2,0.5,0.5,0.5h0.9v1.8h-2.1c-1,0-1.4-0.4-1.4-1.4v-5.3
			c0-1.6-0.3-2.8-2.1-2.8c-1.7,0-3.1,1.1-3.5,2.7c-0.2,0.4-0.2,1-0.2,1.5v5.2h-2.1V269.2z"/>
		<path fill="#DC7676" d="M626.8,266.6c3.1,0,4.8,2.3,4.8,5.2c0,0.3-0.1,0.9-0.1,0.9h-8.2c0.1,2.4,1.9,3.7,3.8,3.7
			c1.9,0,3.3-1.3,3.3-1.3l0.9,1.5c0,0-1.7,1.6-4.3,1.6c-3.5,0-5.9-2.5-5.9-5.9C621.2,268.9,623.7,266.6,626.8,266.6z M629.4,271.2
			c-0.1-1.9-1.2-2.9-2.6-2.9c-1.6,0-3,1-3.3,2.9H629.4z"/>
		<path fill="#DC7676" d="M638.5,266.6c2.6,0,3.4,1.7,3.4,1.7h0c0,0,0-0.3,0-0.8v-2.8c0-0.3-0.2-0.5-0.5-0.5h-0.9v-1.8h2.1
			c1,0,1.4,0.4,1.4,1.4v11.9c0,0.3,0.2,0.5,0.5,0.5h0.9v1.8h-2.1c-1,0-1.4-0.4-1.4-1.2c0-0.3,0-0.6,0-0.6h0c0,0-0.9,2-3.7,2
			c-3,0-4.9-2.4-4.9-5.9C633.4,268.9,635.5,266.6,638.5,266.6z M642,272.4c0-2-1-4-3.2-4c-1.7,0-3.2,1.5-3.2,4c0,2.4,1.3,4,3.2,4
			C640.5,276.5,642,275.3,642,272.4z"/>
	</g>
	<g>
		<path fill="#DC7676" d="M14.3,148.3h150.4v12H14.3c-3.3,0-6-2.7-6-6S11,148.3,14.3,148.3z"/>
		<path fill="#F8E2D2" d="M210.8,148.3c3.3,0,6,2.7,6,6s-2.7,6-6,6h-46.1v-12H210.8z"/>
	</g>
	<g>
		<g id="XMLID_3_">
			<path id="XMLID_60_" fill="#F9E3D2" d="M43.2,107.1c3-1.5,5.1-3.4,7-2.9c2.2,0.6,2,2.2,0.6,3.9c-1.2,1.4-0.8,5.6-0.5,7.5
				c0.5,2.7,0.7,3,2.9,5.4c1.4,1.5,2.9,4,3.6,8.8c0.4,3-0.4,6.3-3,10.1c-1.2,1.8-3.6,3.2-5.7,3.4c-3.1,0.3-6.3,0-9.5,0
				c-3.5,0-5.9-1.2-7.5-4.5c-1.8-4-2.9-8.4-1.1-12.9c1.6-4,2.2-4.3,3.5-6c0.9-1.1,2-2.6,2-4.1c-0.1-3.5-1.7-3.8,0.4-5.8
				C38,108.1,40.9,108.2,43.2,107.1z"/>
			<path id="XMLID_59_" fill="#F9E3D2" d="M35.6,118.7c0.3-1.6-3.3-3.7-4.7-4.1c-2.4-0.7-4.9,0.1-6.9,1.5c-1.8,1.3-2.7,3.4-2.7,5.5
				c0,2.4,2.1,4,3.8,5.4c1.8,1.4,3.9,2.6,5.8,3.9c0.6-0.9,0.7-2.1,0.6-3.1c-3-0.2-8.3-4.4-7.6-7.8c0.4-1.7,2.6-3,4.2-3.2
				c2.1-0.3,3.7,1,5.2,2.3c0.6,0.5,1.3,1.4,1.7,1.8L35.6,118.7z"/>
			<path id="XMLID_58_" fill="#DC7676" d="M49.7,118c0,0,1.7,3.7,2.7,5.3c1.2,1.9,2,3.6,2.3,5.7c0.6,3.9-0.9,9.7-4.6,11.9
				c-1.9,1.1-3.9,0.1-6.1,0c-2.4-0.1-3.2,0.1-5.5,0.4c-2.4,0.4-4.4-1.2-5.5-3.2c-0.9-1.8-1.2-2.8-1.5-4.9c-0.4-3,0.1-5.8,0.7-7.6
				c0.4-1.2,1.7-3.2,2.3-4.4c0.9-1.6,2.1-3.4,2.1-3.4c1.1-0.7,2.8,0,3.9,0.2c1.5,0.3,3.1,0.8,4.7,0.9
				C45.6,118.9,47.6,119.3,49.7,118z"/>
			<g id="XMLID_47_">
				<path id="XMLID_57_" fill="#F79029" d="M35.8,130.4c0.4-0.3,0.8-0.5,1.2-0.6c0.4-0.2,0.9-0.3,1.3-0.3c0.4,0,0.9,0,1.3,0
					c0.4,0.1,0.9,0.2,1.3,0.4c0.4,0.2,0.8,0.4,1.1,0.7c0.3,0.3,0.6,0.6,0.9,1c0.3,0.4,0.5,0.8,0.6,1.2c0.2,0.4,0.2,0.9,0.3,1.3
					c0,0.4,0,0.9,0,1.3c-0.1,0.4-0.2,0.9-0.4,1.3c-0.2,0.4-0.4,0.8-0.7,1.1c-0.3,0.3-0.6,0.7-0.9,0.9c-0.4,0.3-0.8,0.5-1.2,0.6
					c-0.4,0.2-0.9,0.2-1.3,0.3c-0.4,0-0.9,0.1-1.3,0c-0.4-0.1-0.9-0.2-1.3-0.4c-0.4-0.2-0.8-0.4-1.1-0.7c-0.3-0.3-0.6-0.6-0.9-1
					c-0.3-0.4-0.5-0.8-0.6-1.2c-0.2-0.4-0.2-0.9-0.3-1.3c0-0.4,0-0.9,0.1-1.3c0.1-0.4,0.2-0.9,0.3-1.3c0.2-0.4,0.4-0.8,0.7-1.1
					C35.1,131,35.4,130.7,35.8,130.4z"/>
				<path id="XMLID_56_" fill="#FFEFD5" d="M36,130.7c0.4-0.3,0.9-0.5,1.3-0.6c0.5-0.2,0.9-0.2,1.4-0.2c0.5,0,1,0,1.4,0.1
					c0.5,0.2,0.9,0.3,1.3,0.6c0.4,0.3,0.7,0.7,1,1.1c0.3,0.4,0.5,0.8,0.7,1.3c0.2,0.5,0.1,1,0.1,1.4c0,0.5,0.1,1-0.1,1.5
					c-0.2,0.5-0.4,0.9-0.7,1.3c-0.3,0.4-0.7,0.7-1.1,1c-0.4,0.3-0.9,0.5-1.3,0.6c-0.5,0.2-0.9,0.3-1.4,0.3c-0.5,0-1,0-1.4-0.2
					c-0.5-0.1-0.9-0.3-1.3-0.6c-0.4-0.3-0.8-0.6-1.1-1c-0.3-0.4-0.4-0.9-0.5-1.4c-0.2-0.5-0.3-0.9-0.3-1.4c0-0.5,0-1,0.2-1.4
					c0.2-0.5,0.4-0.9,0.7-1.3C35.3,131.4,35.6,131,36,130.7z"/>
				<path id="XMLID_55_" fill="#FBAE25" d="M35.4,136.7c0.4-0.1,2.8-1.7,2.8-2c0,0-3-0.5-3.4-0.5C34.5,134.2,35,136.7,35.4,136.7z"
					/>
				<path id="XMLID_54_" fill="#FBAE25" d="M38.4,134.4c-0.3-0.5-1.6-3-1.9-3.1c-0.3-0.1-1.9,2-1.6,2.3
					C35.1,133.8,38.6,134.7,38.4,134.4z"/>
				<path id="XMLID_53_" fill="#FBAE25" d="M40.8,137.8c0-0.6-1.6-2.8-2-2.8c-0.4,0.1-0.5,3-0.3,3.4
					C38.7,138.8,40.8,138.4,40.8,137.8z"/>
				<path id="XMLID_52_" fill="#FBAE25" d="M37.8,138.2c0.3-0.2,0.8-3,0.6-3.1c-0.2-0.1-2.6,1.7-2.7,2
					C35.5,137.5,37.3,138.6,37.8,138.2z"/>
				<path id="XMLID_51_" fill="#FBAE25" d="M42.3,132.8c-1.2,0.5-3.1,1.4-3,1.7c0,0.1,2.8,0.5,3.3,0.7
					C43.2,135.4,42.7,132.6,42.3,132.8z"/>
				<path id="XMLID_50_" fill="#FBAE25" d="M39.2,134.8c-0.2,0.3,1.5,2,2.2,2.7c0.2,0.3,1.6-1.3,1.3-1.7
					C42.3,135.2,39.3,134.5,39.2,134.8z"/>
				<path id="XMLID_49_" fill="#FBAE25" d="M36.9,131c0.4,0.9,1.4,3.2,1.8,3.3c0.4,0.1,0.8-3.2,0.5-3.7
					C38.8,130.2,36.7,130.5,36.9,131z"/>
				<path id="XMLID_48_" fill="#FBAE25" d="M39.2,133.9c-0.1,0.2-0.1,0.4,0.1,0.2c0.3-0.2,1.8-1,2.2-1.2c0.3-0.2,1-0.6,0.4-1.3
					c-0.6-0.7-1.3-0.9-1.8-1c-0.4-0.1-0.5,0.5-0.5,0.8C39.6,131.8,39.3,133.5,39.2,133.9z"/>
			</g>
			<g id="XMLID_36_">
				<path id="XMLID_46_" fill="#F79029" d="M51.1,124c0.2,0.4,0.3,0.8,0.3,1.2c0.1,0.4,0,0.8,0,1.2c-0.1,0.4-0.2,0.8-0.3,1.2
					c-0.2,0.4-0.3,0.7-0.6,1c-0.2,0.3-0.6,0.6-0.9,0.8c-0.3,0.2-0.7,0.4-1,0.6c-0.4,0.2-0.8,0.3-1.2,0.3c-0.4,0.1-0.8,0-1.2,0
					c-0.4-0.1-0.8-0.1-1.2-0.3c-0.4-0.2-0.7-0.4-1-0.6c-0.3-0.2-0.6-0.5-0.8-0.8c-0.2-0.3-0.5-0.6-0.6-1c-0.2-0.4-0.3-0.8-0.3-1.2
					c-0.1-0.4,0-0.8,0-1.2c0.1-0.4,0.1-0.8,0.3-1.2c0.2-0.4,0.4-0.7,0.6-1c0.2-0.3,0.5-0.6,0.8-0.9c0.3-0.2,0.7-0.4,1-0.6
					c0.4-0.2,0.8-0.3,1.2-0.3c0.4-0.1,0.8,0,1.2,0c0.4,0.1,0.8,0.2,1.1,0.3c0.4,0.2,0.7,0.3,1.1,0.6c0.3,0.2,0.6,0.5,0.8,0.9
					C50.8,123.2,51,123.6,51.1,124z"/>
				<path id="XMLID_45_" fill="#FFEFD5" d="M50.8,124.1c0.2,0.4,0.2,0.9,0.3,1.3c0,0.4,0,0.9-0.1,1.3c-0.1,0.4-0.2,0.9-0.4,1.2
					c-0.2,0.4-0.5,0.8-0.8,1c-0.3,0.3-0.8,0.5-1.2,0.6c-0.4,0.2-0.9,0.3-1.3,0.3c-0.4,0-0.9-0.1-1.3-0.2c-0.4-0.1-0.9-0.1-1.3-0.4
					c-0.4-0.2-0.7-0.5-1-0.9c-0.3-0.3-0.5-0.8-0.6-1.2c-0.2-0.4-0.2-0.9-0.2-1.3c0-0.4,0-0.9,0.1-1.3c0.1-0.4,0.2-0.9,0.5-1.2
					c0.2-0.4,0.5-0.8,0.8-1c0.3-0.3,0.7-0.5,1.1-0.7c0.4-0.2,0.9-0.1,1.3-0.2c0.4,0,0.9,0,1.3,0.1c0.4,0.1,0.9,0.2,1.2,0.5
					c0.4,0.2,0.7,0.6,0.9,0.9C50.3,123.3,50.6,123.7,50.8,124.1z"/>
				<path id="XMLID_44_" fill="#FBAE25" d="M45.7,122.3c0,0.3,0.9,2.8,1.2,2.9c0,0,1.1-2.6,1.1-2.9C48.1,122,45.7,122,45.7,122.3z"
					/>
				<path id="XMLID_43_" fill="#FBAE25" d="M47.1,125.4c0.5-0.1,3-0.8,3.1-1c0.2-0.3-1.4-2.1-1.6-1.9
					C48.3,122.6,46.8,125.5,47.1,125.4z"/>
				<path id="XMLID_42_" fill="#FBAE25" d="M43.5,126.7c0.5,0.1,2.8-0.8,2.9-1.1c0-0.3-2.5-1.1-3-1C43.1,124.7,43,126.6,43.5,126.7z
					"/>
				<path id="XMLID_41_" fill="#FBAE25" d="M43.8,124.1c0.1,0.3,2.5,1.3,2.6,1.2c0.1-0.1-0.9-2.7-1.2-2.8
					C45,122.2,43.6,123.6,43.8,124.1z"/>
				<path id="XMLID_40_" fill="#FBAE25" d="M47.6,129.1c-0.2-1.2-0.6-3-0.8-3c-0.1,0-1.1,2.3-1.3,2.8
					C45.2,129.4,47.7,129.6,47.6,129.1z"/>
				<path id="XMLID_39_" fill="#FBAE25" d="M46.6,126c-0.2-0.2-2.1,0.9-2.9,1.3c-0.3,0.1,0.8,1.7,1.2,1.5
					C45.5,128.6,46.8,126.2,46.6,126z"/>
				<path id="XMLID_38_" fill="#FBAE25" d="M50.3,124.8c-0.9,0.2-3.1,0.5-3.3,0.8c-0.1,0.3,2.6,1.4,3.1,1.2
					C50.6,126.7,50.9,124.7,50.3,124.8z"/>
				<path id="XMLID_37_" fill="#FBAE25" d="M47.3,126.2c-0.2-0.1-0.3-0.2-0.2,0.1c0.1,0.3,0.5,1.8,0.6,2.1c0.1,0.3,0.3,1,1,0.6
					c0.8-0.4,1.1-1,1.2-1.3c0.1-0.4-0.3-0.5-0.6-0.6C49.1,127,47.7,126.4,47.3,126.2z"/>
			</g>
			<g id="XMLID_11_">
				<path id="XMLID_35_" fill="#EEBC7F" d="M37,122c-0.6,0.4-0.9,1.2-1,1.8c-0.1,1,0.2,2.3,0.8,3.1c0.2,0.3,0.3,0.5,0.7,0.5
					c0.5,0,1-0.1,1.5-0.2c0.2,0,0.9-0.1,1-0.2c0.2-0.2,0.2-0.8,0.2-1.1c0.1-0.6,0.3-1,0.7-1.4c0.4-0.4,0.8-0.6,0.4-1.2
					c-0.4-0.7-1-1.4-1.7-1.9c-0.5-0.3-1-0.3-1.5-0.1C37.8,121.5,37.5,121.7,37,122z"/>
				<path id="XMLID_34_" fill="#E0845F" d="M37.7,126.5c0-1,0.2-2.2,0.6-3.1c0.3-0.5,0.6-1,0.9-1.5c0.1-0.2,0.3-0.4,0.4-0.7
					c-0.5-0.3-0.9-0.2-1.4,0c-0.5,0.2-0.8,0.4-1.2,0.8c-0.6,0.4-0.9,1.2-1,1.8c-0.1,1,0.2,2.3,0.8,3.1c0.2,0.3,0.3,0.5,0.7,0.5
					c0,0,0.1,0,0.1,0C37.7,127.1,37.7,126.8,37.7,126.5z"/>
			</g>
			<g id="XMLID_4_">
				<path id="XMLID_9_" fill="#EEBC7F" d="M47.6,136.5c0.6,0.2,1.2,0,1.7-0.3c0.7-0.5,1.2-1.5,1.3-2.3c0-0.4,0.1-0.5-0.2-0.8
					c-0.3-0.4-0.7-0.6-1-0.9c-0.2-0.1-0.5-0.6-0.7-0.6c-0.2,0-0.6,0.4-0.8,0.5c-0.4,0.2-0.7,0.3-1.2,0.3c-0.5,0-0.8-0.2-1,0.4
					c-0.1,0.7-0.2,1.5-0.1,2.2c0.1,0.5,0.4,0.9,0.8,1.1C46.9,136.3,47.1,136.4,47.6,136.5z"/>
				<path id="XMLID_8_" fill="#E0845F" d="M49.8,133.4c-0.6,0.5-1.3,1.1-2.1,1.3c-0.5,0.1-0.9,0.1-1.4,0.2c-0.2,0-0.4,0-0.6,0.1
					c0.1,0.5,0.4,0.8,0.8,1c0.4,0.2,0.7,0.3,1.2,0.5c0.6,0.2,1.2,0,1.7-0.3c0.7-0.5,1.2-1.5,1.3-2.3c0-0.4,0.1-0.5-0.2-0.8
					c0,0,0,0-0.1-0.1C50.1,133.1,49.9,133.3,49.8,133.4z"/>
			</g>
		</g>
		<g id="XMLID_2_">
			<path id="XMLID_7635_" fill="#DC7676" d="M112.9,116.2c-0.6-0.4-0.6-0.9-0.2-1.4c0.3-0.6,0.9-1,1.3-1.5c0.3-0.5,0.9-1,0.4-1.6
				c-0.5-0.5-1.2-0.3-1.8,0c-0.4,0.2-0.7,0.5-0.9,0.9c-0.2,0.4-0.5,0.7-0.6,1.1c-0.5,1-1.3,1.3-2.3,1.3c-1.1,0-2.1,0.2-2.9,0.9
				c-0.8,0.7-1.6,1.4-2.1,2.3c-0.6,1-1.2,1.9-1.3,3.1c-0.1,1.9,1.2,4.1,3,4.9c0.3,0.2,0.7,0.2,0.5,0.7c-0.5,1.2-0.5,2.4-0.1,3.6
				c0.1,0.4,0,0.6-0.4,0.8c-0.5,0.2-1,0.4-1.3,0.9c-0.8,1.2-1.4,2.5-1.4,4c-0.1,2.2,1.2,3.8,2.5,5.3c0.9,1,2,1.5,3.4,1.4
				c0.3,0,0.7,0,1-0.1c2.6-0.6,5.4-3.1,4.6-7.1c-0.3-1.5-0.8-2.7-2.2-3.5c-1.2-0.6-2.5-1.3-3.9-1.4c-0.3,0-0.5-0.2-0.6-0.5
				c-0.6-1.2-0.2-2.4,0.2-3.5c0.1-0.3,0.3-0.3,0.6-0.3c0.6,0,1.1,0,1.7,0c1.1-0.1,2.3-0.3,3-1.4c0.6-1,1.1-2,1.6-3
				C115.2,120.1,114.4,117.4,112.9,116.2z M108,132.5c1.2,0.3,2.3,0.8,3.2,1.6c0.9,0.8,0.8,1.9,0.9,3.1c0.1,0.8-0.3,1.6-0.9,2.4
				c-1.4,1.8-3.7,1.5-5.1,0.2c-1.6-1.5-1.8-3.5-1.3-5.5C105,133.3,106.9,132.3,108,132.5z M110.9,124.2c-0.1,0.1-0.2,0.1-0.3,0.2
				c-1.8,1-4.9,0.1-5.9-1.7c-0.5-1-0.6-2,0-2.9c0.9-1.4,2-2.8,3.9-3c1.2-0.1,2.3,0.2,3.2,0.8c0.9,0.6,0.8,1.8,0.9,2.7
				C112.7,121.9,112,123.2,110.9,124.2z"/>
			<path id="XMLID_7632_" fill="#DC7676" d="M86.7,130.1c0.1-2.2,0-4.4-0.1-6.6c0-2-0.2-4-0.6-5.9c-0.3-2-1.4-3-3.3-3.3
				c-2.3-0.3-4.2,0.4-5.7,2.1c-0.5,0.5-0.4,1.2,0.1,1.6c0.6,0.4,1.1,0.3,1.5-0.4c0.9-1.3,2.1-1.6,3.5-1.5c1,0.1,1.7,0.8,1.9,1.7
				c0.3,1.2,0.5,2.4,0.5,3.6c0,0.3,0,0.6,0,0.9c0,0.8-0.2,0.8-0.9,0.5c-0.5-0.2-1-0.5-1.5-0.6c-2.3-0.4-3.6-0.1-4.9,2.1
				c-0.6,1-0.8,2.1-1,3.2c-0.1,0.5,0,1,0.2,1.5c0.6,1.6,3,3.1,4.7,2.9c0.8-0.1,1.6-0.4,2.3-0.8c1.4-0.8,1.4-0.8,1.4,0.8
				c0,0.6,0.1,1.1,0.7,1.2c0.7,0.1,0.9-0.5,1-1.1C86.9,131.5,86.7,130.8,86.7,130.1z M84.1,128.5c-1.1,1-2.2,2-3.8,1.4
				c-2.2-0.8-2.3-1.2-1.7-3.6c0.3-1.3,1.3-1.9,2.6-2.2c1.4-0.2,2.3,0.4,3.1,1.4c0.3,0.4,0.2,0.9,0.2,1.3
				C84.5,127.4,84.7,127.9,84.1,128.5z"/>
			<path id="XMLID_7628_" fill="#DC7676" d="M68.7,114c1.3-0.3,2.3-0.1,3.2,0.9c0.5,0.5,0.5,1.2,0.7,1.9c0.1,0.4,0.3,0.6,0.6,0.7
				c0.4,0.1,0.7,0.1,1.1-0.2c0.4-0.3,0.7-1.3,0.2-2c-1.2-2-2.8-3.1-4.8-3.2c-2,0-3.4,0.6-4.5,1.8c-1.1,1.1-1.8,2.4-2.3,3.8
				c-0.3,0.9-0.3,1.9,0.1,2.8c0.7,1.4,1.4,2.7,3.5,2.6c0.8,0,1.6,0.1,2.4,0c1-0.1,1.9,0.2,2.4,1.2c0.2,0.4,0.5,0.7,0.7,1.1
				c0.7,1.3,0.3,2.5-0.4,3.7c-0.6,1.1-1.6,1.6-2.9,1.5c-0.9-0.1-1.7-0.3-2.4-0.9c-0.6-0.5-0.3-1.2-0.3-1.9c0-0.6-0.4-1-1-1
				c-0.7,0-1.4,1-1.2,1.7c0.4,1.9,1.6,3,3.3,3.6c1.3,0.4,2.6,0.9,3.9,0.2c1.7-0.9,2.9-2.3,3.2-4.2c0.3-1.6,0.1-1.8-0.4-3.3
				c-0.3-1-0.6-1.4-1.1-2c-0.5-0.6-1.1-0.8-1.9-1c-1.1-0.2-2.3-0.1-3.4-0.1c-1.7-0.1-2.6-0.9-2.6-2.7
				C64.8,116.8,66.6,114.6,68.7,114z"/>
			<path id="XMLID_7624_" fill="#DC7676" d="M99.5,123.2c0-1.2-0.2-2.4-0.1-3.6c0.1-1-0.8-1.4-1.6-0.9c-0.5,0.3-0.5,0.7-0.5,1.2
				c0,2.2,0.8,4.3,0.3,6.5c-0.1,0.4,0.1,0.9-0.3,1.1c-0.4,0.1-0.7-0.4-0.9-0.7c-1-1.4-2.1-2.8-3.2-4.1c-0.5-0.6-1-1.2-1.6-1.8
				c-0.7-0.8-1.7-1-2.1-0.4c-0.4,0.6-0.8,1.3-0.7,2c0.2,0.9,0.2,1.8,0.4,2.6c0.4,2.1,0.9,4.3,0.8,6.7c0,0.2,0,0.5-0.1,0.9
				c-0.1,0.5,0.3,0.8,0.7,1c0.4,0.2,0.8,0,1-0.4c0.4-0.5,0.4-1.1,0.3-1.7c-0.4-2.6-0.4-5.3-1.2-7.9c-0.1-0.2-0.1-0.4,0.1-0.6
				c0.2-0.1,0.3,0.1,0.5,0.2c0.6,0.4,1,1,1.4,1.5c1.4,1.8,3.1,3.4,3.9,5.7c0.3,0.9,0.7,1,1.5,0.8c1.1-0.3,1.6-0.7,1.5-1.6
				C99.3,127.6,99.5,125.4,99.5,123.2z"/>
			<path id="XMLID_7623_" fill="#DC7676" d="M121.2,123.6c0.3-0.5,0.7-0.9,1.2-1.2c0.6-0.3,1.2-0.3,1.7-0.5c2.4-0.5,2.4-0.5,3.4,1.8
				c0.1,0.2,0.2,0.5,0.5,0.4c0.4,0,1.2-0.7,1.2-1.1c0-1.6-1.4-3.4-3.1-3.2c-0.9,0.1-1.7,0.4-2.5,0.6c-0.2,0-0.4,0.2-0.5,0
				c-0.2-0.2-0.1-0.4,0-0.6c0.1-0.4,0.5-0.6,0.8-1c0.3-0.5,0.6-1,0.3-1.5c-0.3-0.5-0.9-0.5-1.5-0.4c-0.4,0.1-0.5,0.4-0.7,0.7
				c-0.1,0.2-0.6,1.2-0.7,1.4c-0.2,0.4-0.9,1.6-1.5,2.8c-1.3,2.5-2.3,5.1-3.7,7.6c-0.2,0.5-0.6,1,0,1.4c0.5,0.4,1.3,0.3,1.8-0.3
				c0.4-0.4,0.7-0.9,0.9-1.4C119.4,127.3,120.1,125.4,121.2,123.6z"/>
			<path id="XMLID_6803_" fill="#DC7676" d="M127.8,113.5c1.5-0.1,2.6-0.8,3.1-1.2c0.6-0.6,1-1.3,1.1-1.4c0.6-1.2,0.7-2,0.2-3.4
				c-0.3-0.9-1-1.5-1.8-2c-1.3-0.9-2.9-1.3-4.5-0.7c-1.8,0.6-3.2,4.1-2.5,5.8C124.1,112.4,125.7,113.6,127.8,113.5z M127.4,106.4
				c1.9,0,3.3,1.3,3.3,3c0,1.2-1.4,2.5-2.6,2.5c-1.6,0-3-1.4-3-2.9C125.1,107.7,126.3,106.4,127.4,106.4z"/>
			<path id="XMLID_6802_" fill="#DC7676" d="M138.7,124.8c-0.8-1.3-1.6-2.8-2.5-4.2c-0.7-1.2-1.4-2.3-2-3.5
				c-0.3-0.6-0.8-0.8-1.4-0.6c-0.6,0.2-1,0.8-0.8,1.3c0.1,0.3,0.3,0.5,0.4,0.8c1,1.7,2.4,3.3,3.1,5.2c0.6,1.7,2,3.1,2.5,4.8
				c0.1,0.3,0.4,0.7,0.9,0.7c0.5,0,0.9-0.3,1.1-0.7c0.2-0.3,0.1-0.7-0.2-0.9C139.4,126.7,139,125.8,138.7,124.8z"/>
			<path id="XMLID_7641_" fill="#DC7676" d="M150.7,128.7c0.2-4.3,0.3-9-1.2-14.3c-0.4-1.4-1.5-2.4-2.4-2.8
				c-1.1-0.5-2.4-0.3-3.6,0.1c0,0-0.1,0-0.1,0c-0.8,0.3-1.4,0.6-2,1.1c-0.2,0.1-0.3,0.3-0.5,0.4c0,0-0.1,0-0.1,0.1
				c-1.3,1.2-1.7,3.1-1.2,4.8c0.6,2,2.7,3.9,5.6,2.9c0.6-0.2,0.9-0.3,1.5-0.7c0.6-0.3,0.6-0.9,0.5-1.3c-0.1-0.3-0.4-0.7-0.8-0.7
				c-0.8,0-0.7,0.4-1.6,0.9c-0.5,0.3-1.5,0.4-1.8,0.2c-1.9-0.6-1.9-1.5-1.8-2.9c0.1-1.9,1.6-2.7,3.2-3.1c0.5-0.1,1.1-0.2,1.5-0.1
				c0.9,0.2,1.2,0.8,1.6,1.6c1,1.7,2.4,11,1.3,14.8c-0.1,0.5-0.2,0.8-0.8,0.5c-0.9-0.5-1.8-0.8-2.8-0.7c-1.6-0.1-2.6,0.6-3.4,1.8
				c-0.9,1.5-1.6,3.1-1.2,4.8c0.6,2,3.3,4.2,6.1,2.8c0.6-0.3,1.2-0.6,1.8-0.9c0.4-0.2,0.6-0.1,0.7,0.4c0,0.4,0,0.7,0,1.1
				c0,0.5,0.2,0.9,0.8,1c0.5,0.1,0.8-0.3,0.9-0.8c0.1-0.3,0.1-0.6,0.1-0.9C151,135.4,150.5,133.4,150.7,128.7z M148.9,134.6
				c-0.2,1.1-2.8,3.2-4.3,2.6c-1.6-0.6-2.1-1.2-1.9-2.7c0.2-1.8,1.3-3,2.9-3.2c1.3-0.2,2.3,0.5,3,1.5
				C148.9,133.2,149.1,134,148.9,134.6z"/>
		</g>
	</g>
</g>
<g id="Layer_7">
	<g opacity="0.7">
		<path fill="#FFFFFF" d="M294.6,159.3c-0.3-0.2-0.6-0.3-0.9-0.4l0-9.4c0.3-0.1,0.6-0.2,0.9-0.4c1.7-1,2.3-3.1,1.3-4.8
			s-3.1-2.3-4.8-1.3c-0.3,0.2-0.6,0.4-0.8,0.6l-8.1-4.7c0.1-0.3,0.1-0.7,0.1-1c0-1.9-1.6-3.5-3.5-3.5c-1.9,0-3.5,1.6-3.5,3.5
			c0,0.3,0.1,0.7,0.1,1l-8.1,4.7c-0.2-0.2-0.5-0.5-0.8-0.6c-1.7-1-3.8-0.4-4.8,1.3c-1,1.7-0.4,3.8,1.3,4.8c0.3,0.2,0.6,0.3,0.9,0.4
			v9.4c-0.3,0.1-0.6,0.2-0.9,0.4c-1.7,1-2.3,3.1-1.3,4.8c1,1.7,3.1,2.3,4.8,1.3c0.3-0.2,0.6-0.4,0.8-0.6l8.1,4.7
			c-0.1,0.3-0.1,0.7-0.1,1c0,1.9,1.6,3.5,3.5,3.5c1.9,0,3.5-1.6,3.5-3.5c0-0.4-0.1-0.8-0.2-1.1l8.1-4.7c0.2,0.3,0.5,0.5,0.9,0.7
			c1.7,1,3.8,0.4,4.8-1.3C296.9,162.5,296.3,160.3,294.6,159.3z M268.2,161.6c-0.1-0.3-0.2-0.6-0.4-0.9c-0.2-0.3-0.4-0.6-0.6-0.8
			l10.6-18.4c0.3,0.1,0.6,0.1,1,0.1c0.3,0,0.7,0,1-0.1l10.6,18.4c-0.2,0.2-0.4,0.5-0.6,0.8c-0.2,0.3-0.3,0.6-0.4,0.9L268.2,161.6z
			 M289.5,145.2c-0.3,0.9-0.2,1.9,0.3,2.7c0.5,0.9,1.3,1.4,2.2,1.7l0,9.4c0,0-0.1,0-0.1,0l-10.6-18.4c0,0,0.1-0.1,0.1-0.1
			L289.5,145.2z M276.3,140.5C276.3,140.5,276.3,140.5,276.3,140.5L265.7,159c0,0-0.1,0-0.1,0v-9.4c0.9-0.2,1.7-0.8,2.2-1.7
			c0.5-0.9,0.6-1.8,0.3-2.7L276.3,140.5z M281.4,168.2c-0.6-0.7-1.6-1.2-2.6-1.2c-1,0-1.9,0.4-2.5,1.1l-8.2-4.7c0,0,0-0.1,0-0.1
			h21.3c0,0.1,0,0.2,0.1,0.2L281.4,168.2z"/>
		<g>
			<path fill="#FFFFFF" d="M314.3,143.1c4.1,0,6.1,2.1,6.1,2.1l-1.4,1.8c0,0-1.8-1.7-4.7-1.7c-3.4,0-6.2,2.7-6.2,6.6
				c0,4,2.7,6.7,6.2,6.7c3.1,0,4.9-2.1,4.9-2.1v-1.7c0-0.3-0.2-0.5-0.5-0.5h-1v-2.1h2.3c1.1,0,1.6,0.5,1.6,1.6v6.9h-2.1v-1.1
				c0-0.4,0-0.7,0-0.7h0c0,0-1.9,2.1-5.3,2.1c-4.6,0-8.4-3.6-8.4-8.9C305.7,147,309.4,143.1,314.3,143.1z"/>
			<path fill="#FFFFFF" d="M325,150.8c0-0.4-0.2-0.5-0.5-0.5h-1v-2h2.2c1.1,0,1.6,0.4,1.6,1.4v0.8c0,0.5,0,0.9,0,0.9h0
				c0.6-1.8,2-3.2,3.9-3.2c0.3,0,0.6,0,0.6,0v2.3c0,0-0.3-0.1-0.7-0.1c-1.5,0-2.9,1.1-3.4,2.9c-0.2,0.7-0.3,1.5-0.3,2.2v5H325V150.8
				z"/>
			<path fill="#FFFFFF" d="M339.9,152.9h0.5v-0.1c0-2.2-0.8-2.9-2.7-2.9c-0.6,0-2,0.1-2,0.9v0.7h-2.2v-1.2c0-2,3.1-2.3,4.3-2.3
				c4,0,5.1,2.1,5.1,4.8v5.2c0,0.4,0.2,0.5,0.5,0.5h1v2h-2.2c-1.1,0-1.5-0.5-1.5-1.4c0-0.4,0-0.7,0-0.7h0c0,0-1,2.4-3.9,2.4
				c-2.1,0-4.2-1.3-4.2-3.7C332.5,153.2,337.8,152.9,339.9,152.9z M337.2,159c2,0,3.3-2.1,3.3-3.9v-0.4h-0.6c-1.8,0-5,0.1-5,2.4
				C334.9,158,335.6,159,337.2,159z"/>
			<path fill="#FFFFFF" d="M346.9,150.8c0-0.4-0.2-0.5-0.5-0.5h-1v-2h2.2c1.1,0,1.5,0.5,1.5,1.2c0,0.4,0,0.7,0,0.7h0
				c0,0,1-2.2,4.1-2.2c3.3,0,5.4,2.6,5.4,6.4c0,3.9-2.4,6.4-5.6,6.4c-2.7,0-3.8-2-3.8-2h0c0,0,0,0.4,0,1.1v5.5h-2.4V150.8z
				 M352.6,158.8c1.9,0,3.5-1.6,3.5-4.4c0-2.7-1.4-4.4-3.5-4.4c-1.8,0-3.5,1.3-3.5,4.4C349.1,156.7,350.3,158.8,352.6,158.8z"/>
			<path fill="#FFFFFF" d="M361.2,146c0-0.4-0.2-0.5-0.5-0.5h-1v-2h2.3c1.1,0,1.6,0.5,1.6,1.5v4.8c0,0.6,0,1,0,1h0
				c0.5-1.2,2.1-2.7,4.6-2.7c2.9,0,4.2,1.6,4.2,4.7v5.3c0,0.4,0.2,0.5,0.5,0.5h1v2h-2.3c-1.1,0-1.6-0.5-1.6-1.6v-5.8
				c0-1.7-0.4-3.1-2.3-3.1c-1.9,0-3.4,1.3-3.9,3c-0.2,0.5-0.2,1-0.2,1.6v5.8h-2.4V146z"/>
			<path fill="#FFFFFF" d="M384,143.1c5,0,8.8,3.8,8.8,8.8c0,2.1-0.8,4.1-2,5.6l2,1.9l-1.5,1.6l-2-2c-1.5,1.2-3.4,1.8-5.4,1.8
				c-5,0-8.8-4-8.8-9C375.2,146.9,379,143.1,384,143.1z M384,158.6c2.3,0,3.6-1.2,3.6-1.2l-1.9-1.8l1.5-1.6l1.9,1.9
				c0.8-1.1,1.3-2.5,1.3-4c0-3.7-2.8-6.5-6.3-6.5c-3.5,0-6.2,2.8-6.2,6.5C377.7,155.7,380.5,158.6,384,158.6z"/>
			<path fill="#FFFFFF" d="M396.1,146c0-0.4-0.2-0.5-0.5-0.5h-1v-2.1h2.5c1.1,0,1.6,0.5,1.6,1.6v13c0,0.3,0.2,0.5,0.5,0.5h4.7
				c0.3,0,0.5-0.2,0.5-0.5v-1.1h2.2v2.2c0,1.1-0.5,1.6-1.6,1.6h-7.3c-1.1,0-1.6-0.5-1.6-1.6V146z"/>
		</g>
	</g>
</g>
</svg>
